<ttFont>
          <CharString index="0">
            rmoveto
            -106 callsubr
            193 hmoveto
            -106 callsubr
            endchar
          </CharString>
          <CharString index="1">
            -41 33 -33 41 41 33 33 41 41 -33 33 -41 -41 -33 -33 -41 vhcurveto
            return
          </CharString>
          <CharString index="2">
            413 579 -87 callsubr
            -586 vmoveto
            -14 callsubr
            -82 callsubr
            hvcurveto
            return
          </CharString>
          <CharString index="3">
            324 120 -60 callsubr
            -88 -56 -61 -78 hvcurveto
            -128 vmoveto
            -16 callsubr
            154 -120 124 -165 -28 callsubr
            -15 callsubr
            hvcurveto
            return
          </CharString>
          <CharString index="4">
            159 vstem
            -105 callsubr
            return
          </CharString>
          <CharString index="5">
            -71 callsubr
            -79 callsubr
            return
          </CharString>
          <CharString index="6">
            453 -73 callsubr
            -135 -137 -97 -182 -173 128 -103 146 72 77 17 69 73 vhcurveto
            -344 245 rmoveto
            -47 callsubr
            return
          </CharString>
          <CharString index="7">
            -66 callsubr
            699 rlineto
            -151 hlineto
            -302 -699 -80 callsubr
            return
          </CharString>
          <CharString index="8">
            rmoveto
            83 81 84 -81 rlineto
            123 hlineto
            -113 158 rlineto
            -187 hlineto
            -113 -158 rlineto
            endchar
          </CharString>
          <CharString index="9">
            hstem
            83 callsubr
            415 -103 callsubr
            return
          </CharString>
          <CharString index="10">
            -54 callsubr
            35 callsubr
            hintmask 01111100
            -96 callsubr
            21 callsubr
            hvcurveto
            hintmask 10111100
            -49 callsubr
            vhcurveto
            hintmask 01111100
            -65 vlineto
            hintmask 10111100
            -67 callsubr
            return
          </CharString>
          <CharString index="11">
            528 hmoveto
            343 vlineto
            151 -104 53 -118 -78 -79 -15 -62 -85 vhcurveto
            67 -97 rlineto
            29 38 65 25 53 hhcurveto
            50 41 -22 -64 hvcurveto
            -3 -112 vlineto
            return
          </CharString>
          <CharString index="12">
            hstem
            45 callsubr
            151 vstem
            -104 callsubr
            return
          </CharString>
          <CharString index="13">
            -102 callsubr
            endchar
          </CharString>
          <CharString index="14">
            376 132 rmoveto
            -88 -56 69 112 hvcurveto
            386 -156 -391 vlineto
            -210 133 -105 167 167 132 105 210 vhcurveto
            391 -156 -386 vlineto
            -112 -56 -69 -87 vhcurveto
            return
          </CharString>
          <CharString index="15">
            rmoveto
            160 -82 72 -220 vhcurveto
            -265 -12 callsubr
            223 108 hlineto
            155 -223 rlineto
            192 hlineto
            -177 250 rlineto
            86 32 47 67 118 vvcurveto
            -159 hmoveto
            -70 -25 -39 -113 vhcurveto
            -114 207 117 hlineto
            99 36 -22 -76 hvcurveto
            return
          </CharString>
          <CharString index="16">
            3 callsubr
            36 callsubr
            cntrmask 11100000
            -101 callsubr
            return
          </CharString>
          <CharString index="17">
            -9 callsubr
            -98 callsubr
            return
          </CharString>
          <CharString index="18">
            hstem
            76 156 287 156 vstem
            -93 callsubr
            return
          </CharString>
          <CharString index="19">
            19 callsubr
            -95 callsubr
            return
          </CharString>
          <CharString index="20">
            rmoveto
            118 90 -101 -125 -123 -90 -101 -118 -117 -90 101 123 125 90 101 117 hvcurveto
            return
          </CharString>
          <CharString index="21">
            13 callsubr
            252 159 vstem
            653 467 -92 callsubr
            return
          </CharString>
          <CharString index="22">
            -4 callsubr
            -83 callsubr
            return
          </CharString>
          <CharString index="23">
            16 -26 -19 11 -31 hhcurveto
            -66 -50 -59 -102 hvcurveto
            106 hlineto
            44 -1 19 8 12 hhcurveto
            return
          </CharString>
          <CharString index="24">
            66 50 58 103 hvcurveto
            -106 hlineto
            -44 1 -19 -8 -12 hhcurveto
            -13 -24 16 12 -20 hvcurveto
            return
          </CharString>
          <CharString index="25">
            206 -161 155 -206 -29 callsubr
            -206 161 -155 206 return
          </CharString>
          <CharString index="26">
            rmoveto
            113 -158 rlineto
            187 hlineto
            113 158 rlineto
            -123 hlineto
            -84 -81 -83 81 rlineto
            endchar
          </CharString>
          <CharString index="27">
            rlineto
            166 hlineto
            84 callsubr
            rlineto
            293 hlineto
            -146 340 rmoveto
            87 -203 rlineto
            -175 hlineto
            return
          </CharString>
          <CharString index="28">
            -72 callsubr
            vhcurveto
            return
          </CharString>
          <CharString index="29">
            -20 -23 callsubr
            hstemhm
            65 33 callsubr
            hintmask 10111000
            -75 callsubr
            hintmask 01111000
            20 callsubr
            return
          </CharString>
          <CharString index="30">
            rmoveto
            -128 178 -154 -66 139 -112 rlineto
            endchar
          </CharString>
          <CharString index="31">
            32 callsubr
            -89 callsubr
            return
          </CharString>
          <CharString index="32">
            418 248 rmoveto
            -51 callsubr
            -326 vlineto
            -156 103 -64 101 56 55 25 54 38 vhcurveto
            return
          </CharString>
          <CharString index="33">
            73 106 rlineto
            13 20 9 21 25 vvcurveto
            53 -38 29 -44 -48 -35 -34 -48 -26 10 -24 23 -15 vhcurveto
            -45 -107 rlineto
            return
          </CharString>
          <CharString index="34">
            169 rmoveto
            -43 -41 -50 -10 -39 hhcurveto
            -64 -60 40 60 -10 hvcurveto
            392 80 hlineto
            162 -125 89 -143 return
          </CharString>
          <CharString index="35">
            49 -39 39 -49 -49 -39 -39 -49 return
          </CharString>
          <CharString index="36">
            -49 39 -39 49 49 39 39 49 return
          </CharString>
          <CharString index="37">
            vstem
            586 538 rmoveto
            -160 hlineto
            -131 -335 -131 335 rlineto
            -160 hlineto
            209 -528 -1 -12 -6 vvcurveto
            -32 -22 -34 -29 -18 -31 9 28 -29 vhcurveto
            -68 68 callsubr
            48 hhcurveto
            75 67 42 74 30 hvcurveto
            return
          </CharString>
          <CharString index="38">
            590 25 callsubr
            -504 -699 515 138 -359 145 313 133 -313 144 348 hlineto
            return
          </CharString>
          <CharString index="39">
            rmoveto
            -94 callsubr
          </CharString>
          <CharString index="40">
            -10 205 -46 callsubr
            44 42 12 48 vhcurveto
            94 hlineto
            return
          </CharString>
          <CharString index="41">
            85 22 -21 150 104 412 -20 hstem
            584 hmoveto
            166 hlineto
            -302 return
          </CharString>
          <CharString index="42">
            hstem
            66 161 203 161 vstem
            227 513 rmoveto
            36 31 29 53 53 65 -16 -53 70 vhcurveto
            79 114 rlineto
            60 -71 -99 32 -92 hhcurveto
            -132 -118 -66 -146 -134 85 -47 150 -36 hvcurveto
            106 -26 23 -21 -40 vvcurveto
            -42 -35 -27 -57 -73 -65 37 62 -71 vhcurveto
            -93 -114 rlineto
            -82 89 104 -41 106 hhcurveto
            151 105 81 137 121 -78 56 -149 37 hvcurveto
            -110 27 -27 19 43 vvcurveto
            return
          </CharString>
          <CharString index="43">
            13 callsubr
            vstem
            -69 callsubr
            return
          </CharString>
          <CharString index="44">
            hstem
            61 140 134 141 vstem
            476 172 rmoveto
            105 -89 27 -81 25 vhcurveto
            -70 22 -35 11 31 vvcurveto
            26 26 12 45 36 51 -13 -35 51 vhcurveto
            56 100 rlineto
            44 -65 -66 20 -67 hhcurveto
            -111 -96 -64 -108 -99 103 -38 69 -22 hvcurveto
            72 -23 30 -19 -27 vvcurveto
            -24 -23 -17 -40 -44 -72 16 49 -63 vhcurveto
            -66 -94 rlineto
            -59 73 94 -26 75 hhcurveto
            116 91 64 116 hvcurveto
            return
          </CharString>
          <CharString index="45">
            -24 callsubr
            -64 callsubr
            return
          </CharString>
          <CharString index="46">
            67 21 28 callsubr
            -86 callsubr
            return
          </CharString>
          <CharString index="47">
            rmoveto
            -77 -56 61 88 89 56 61 77 78 56 -61 -89 return
          </CharString>
          <CharString index="48">
            59 callsubr
            hstem
            4 582 -70 callsubr
            return
          </CharString>
          <CharString index="49">
            65 -127 -177 rlineto
            return
          </CharString>
          <CharString index="50">
            -41 -78 rlineto
            6 13 11 3 10 hhcurveto
            25 17 -17 -19 -15 -13 -15 -20 -12 -14 5 14 -16 hvcurveto
            return
          </CharString>
          <CharString index="51">
            -21 21 -21 428 110 -110 119 42 callsubr
            203 150 hintmask 10111000
            -55 callsubr
            hintmask 11011000
            60 -150 23 callsubr
            vlineto
            return
          </CharString>
          <CharString index="52">
            221 300 rmoveto
            6 callsubr
            -304 150 327 vlineto
            139 -93 81 -103 -54 -54 -19 -50 -49 vhcurveto
            return
          </CharString>
          <CharString index="53">
            -66 -8 123 -94 -21 231 107 89 120 return
          </CharString>
          <CharString index="54">
            575 249 rmoveto
            -343 450 rlineto
            -146 -12 callsubr
            438 hlineto
            333 -438 rlineto
            34 callsubr
            -156 hlineto
            return
          </CharString>
          <CharString index="55">
            rmoveto
            hintmask 11101010
            -85 callsubr
            hintmask 11010101
            -48 callsubr
          </CharString>
          <CharString index="56">
            -89 -57 -38 -54 -58 -33 38 86 vhcurveto
            293 -151 return
          </CharString>
          <CharString index="57">
            4 callsubr
            5 callsubr
            -91 -8 callsubr
            hvcurveto
            return
          </CharString>
          <CharString index="58">
            -109 89 -70 114 63 43 28 45 36 return
          </CharString>
          <CharString index="59">
            -84 callsubr
            hintmask 11011001
            -27 callsubr
          </CharString>
          <CharString index="60">
            65 9 60 35 57 hhcurveto
            53 50 -32 -68 7 hvcurveto
            return
          </CharString>
          <CharString index="61">
            rmoveto
            -56 -47 -34 -60 -43 -34 20 40 return
          </CharString>
          <CharString index="62">
            -83 callsubr
            hintmask 11011100
            -84 callsubr
            hintmask 11010100
            -27 callsubr
          </CharString>
          <CharString index="63">
            -30 callsubr
            vstem
            -13 callsubr
            return
          </CharString>
          <CharString index="64">
            rmoveto
            -102 callsubr
            return
          </CharString>
          <CharString index="65">
            rmoveto
            139 112 return
          </CharString>
          <CharString index="66">
            hvcurveto
            hintmask 10111100
            -57 callsubr
            hintmask 01111000
            -38 -86 rlineto
            hintmask 10111100
            -31 callsubr
            return
          </CharString>
          <CharString index="67">
            hstem
            319 157 vstem
            112 565 rmoveto
            207 -328 hlineto
            -72 -40 -30 -40 -47 -43 23 45 -42 vhcurveto
            -81 -112 rlineto
            -68 66 77 -29 77 hhcurveto
            125 105 73 176 hvcurveto
            456 -364 vlineto
            return
          </CharString>
          <CharString index="68">
            157 -30 callsubr
            333 156 vstem
            -53 callsubr
            return
          </CharString>
          <CharString index="69">
            hvcurveto
            -282 -149 rmoveto
            -66 -58 60 87 91 58 63 66 72 59 -65 -88 -90 -64 -58 -67 hvcurveto
            endchar
          </CharString>
          <CharString index="70">
            21 -21 699 -20 return
          </CharString>
          <CharString index="71">
            25 callsubr
            -171 hlineto
            -502 -699 rlineto
            172 hlineto
            363 83 -50 callsubr
            return
          </CharString>
          <CharString index="72">
            -37 callsubr
            hstem
            return
          </CharString>
          <CharString index="73">
            -42 -35 callsubr
            231 156 vstem
            158 25 callsubr
            -169 hlineto
            242 -423 rlineto
            -276 156 276 vlineto
            242 423 61 callsubr
            -151 -260 rlineto
            return
          </CharString>
          <CharString index="74">
            rmoveto
            -73 -87 rlineto
            -75 vlineto
            8 17 22 4 20 hhcurveto
            39 36 -15 -33 -35 -26 -14 -29 -40 -27 13 30 -40 hvcurveto
            -46 -83 rlineto
            -36 52 55 -18 46 hhcurveto
            89 74 52 93 55 -33 53 -65 16 hvcurveto
            return
          </CharString>
          <CharString index="75">
            -332 -44 callsubr
            699 vlineto
            return
          </CharString>
          <CharString index="76">
            -24 38 32 -8 26 hhcurveto
            89 45 54 53 43 -26 20 -39 13 hvcurveto
            return
          </CharString>
          <CharString index="77">
            -35 callsubr
            86 156 return
          </CharString>
          <CharString index="78">
            -206 -161 -155 -206 return
          </CharString>
          <CharString index="79">
            -164 -120 -124 -154 return
          </CharString>
          <CharString index="80">
            13 24 -17 -11 19 hvcurveto
            endchar
          </CharString>
          <CharString index="81">
            74 vstem
            773 350 rmoveto
            199 -161 162 -199 -202 -160 -165 -198 -197 158 -163 202 203 159 165 197 vhcurveto
            -74 hmoveto
            return
          </CharString>
          <CharString index="82">
            407 138 rmoveto
            -108 -94 82 131 140 103 75 110 66 67 -29 -63 51 hvcurveto
            97 110 rlineto
            70 -62 -85 61 -141 50 callsubr
            return
          </CharString>
          <CharString index="83">
            -6 0 -2 callsubr
            139 return
          </CharString>
          <CharString index="84">
            -8 129 -121 121 417 -20 return
          </CharString>
          <CharString index="85">
            -122 -126 rlineto
            -77 307 96 -153 vlineto
            62 65 rlineto
            60 63 19 33 43 vvcurveto
            85 -70 47 -76 -75 -44 -38 -61 -39 vhcurveto
            87 -52 rlineto
            30 19 24 29 27 hhcurveto
            return
          </CharString>
          <CharString index="86">
            rmoveto
            -118 -185 53 callsubr
            122 185 -122 184 rlineto
            -151 hlineto
            return
          </CharString>
          <CharString index="87">
            rmoveto
            -151 hlineto
            -122 -184 122 -185 53 callsubr
            -118 185 rlineto
            return
          </CharString>
          <CharString index="88">
            372 321 rmoveto
            205 218 rlineto
            -189 hlineto
            -167 -178 rlineto
            381 72 callsubr
            11 callsubr
            return
          </CharString>
          <CharString index="89">
            rmoveto
            -59 48 -48 59 59 48 48 59 58 callsubr
            vhcurveto
            72 hmoveto
            -5 callsubr
          </CharString>
          <CharString index="90">
            71 538 -1 callsubr
            return
          </CharString>
          <CharString index="91">
            165 120 123 154 return
          </CharString>
          <CharString index="92">
            -154 120 -123 164 return
          </CharString>
          <CharString index="93">
            206 161 155 206 return
          </CharString>
          <CharString index="94">
            86 25 callsubr
            -12 callsubr
            return
          </CharString>
          <CharString index="95">
            -699 156 return
          </CharString>
          <CharString index="96">
            200 rmoveto
            0 -53 -75 -82 -70 -72 47 98 96 71 49 73 48 54 -22 -43 36 vhcurveto
            78 102 rlineto
            65 -63 -85 30 -74 hhcurveto
            -148 -137 -107 -172 return
          </CharString>
          <CharString index="97">
            -85 -62 -63 -78 -77 62 -63 85 hvcurveto
            return
          </CharString>
          <CharString index="98">
            166 -7 136 450 136 return
          </CharString>
          <CharString index="99">
            vmoveto
            86 62 63 77 78 -62 63 -86 return
          </CharString>
          <CharString index="100">
            -177 rlineto
            endchar
          </CharString>
          <CharString index="101">
            hstem
            42 468 vstem
            296 414 rmoveto
            -254 -290 rlineto
            -124 468 125 -276 vlineto
            261 296 rlineto
            117 -434 -124 vlineto
            return
          </CharString>
          <CharString index="102">
            19 16 16 19 19 16 -16 -19 -19 -16 -16 -19 -19 -16 16 19 vhcurveto
            endchar
          </CharString>
          <CharString index="103">
            -16 27 19 -11 31 hhcurveto
            return
          </CharString>
          <CharString index="104">
            hstem
            46 585 vstem
            46 hmoveto
            585 136 -371 hlineto
            365 455 rlineto
            108 -567 -135 354 vlineto
            -366 -457 rlineto
            return
          </CharString>
          <CharString index="105">
            138 145 133 144 return
          </CharString>
          <CharString index="106">
            rmoveto
            23 callsubr
            538 vlineto
            return
          </CharString>
          <CharString index="107">
            109 446 14 callsubr
            return
          </CharString>
          <CharString index="108">
            109 -96 14 callsubr
            return
          </CharString>
          <CharString index="109">
            12 callsubr
            54 101 rlineto
            31 callsubr
            return
          </CharString>
          <CharString index="110">
            -42 -8 124 100 107 100 124 return
          </CharString>
          <CharString index="111">
            rmoveto
            -23 -18 19 30 30 18 21 23 return
          </CharString>
          <CharString index="112">
            24 18 -21 -30 -30 -18 -19 -24 hvcurveto
            return
          </CharString>
          <CharString index="113">
            90 58 38 54 57 34 -38 -86 vhcurveto
            return
          </CharString>
          <CharString index="114">
            -10 rmoveto
            -44 -21 -18 -25 -23 -25 13 22 -19 vhcurveto
            -69 -111 27 callsubr
            return
          </CharString>
          <CharString index="115">
            326 rmoveto
            486 -229 rlineto
            148 vlineto
            -321 152 321 148 rlineto
            147 vlineto
            -486 -229 rlineto
            return
          </CharString>
          <CharString index="116">
            463 rmoveto
            -486 229 rlineto
            -147 vlineto
            321 -148 -321 -152 rlineto
            -148 vlineto
            486 229 rlineto
            return
          </CharString>
          <CharString index="117">
            -74 callsubr
            endchar
          </CharString>
          <CharString index="118">
            150 155 vlineto
            49 51 137 -206 rlineto
            178 hlineto
            return
          </CharString>
          <CharString index="119">
            250 569 rmoveto
            45 24 20 29 25 24 -10 -28 24 vhcurveto
            return
          </CharString>
          <CharString index="120">
            hstem
            24 callsubr
            return
          </CharString>
          <CharString index="121">
            rmoveto
            -74 callsubr
            return
          </CharString>
          <CharString index="122">
            6 callsubr
            -294 150 327 vlineto
            139 -94 81 -103 -54 -56 -22 -47 -46 vhcurveto
            return
          </CharString>
          <CharString index="123">
            -21 36 25 -15 41 hhcurveto
            88 66 77 137 hvcurveto
            -141 hlineto
            -58 2 -26 -11 -16 hhcurveto
            -17 -32 21 16 -26 hvcurveto
            return
          </CharString>
          <CharString index="124">
            22 -35 -25 14 -41 hhcurveto
            -88 -67 -78 -136 hvcurveto
            141 hlineto
            59 -1 25 10 16 hhcurveto
            17 32 -22 -15 26 hvcurveto
            return
          </CharString>
          <CharString index="125">
            161 -158 161 hstemhm
            return
          </CharString>
          <CharString index="126">
            -8 128 299 128 return
          </CharString>
          <CharString index="127">
            -71 151 538 -151 vlineto
            return
          </CharString>
          <CharString index="128">
            -131 -93 -49 -118 return
          </CharString>
          <CharString index="129">
            148 45 148 return
          </CharString>
          <CharString index="130">
            -538 150 return
          </CharString>
          <CharString index="131">
            86 156 return
          </CharString>
          <CharString index="132">
            699 rmoveto
            return
          </CharString>
          <CharString index="133">
            -161 -125 130 156 157 128 131 160 157 129 -129 -157 return
          </CharString>
          <CharString index="134">
            46 callsubr
            49 hhcurveto
            95 87 68 122 hvcurveto
            return
          </CharString>
          <CharString index="135">
            -21 223 135 207 134 return
          </CharString>
          <CharString index="136">
            -20 105 callsubr
            return
          </CharString>
          <CharString index="137">
            71 150 return
          </CharString>
          <CharString index="138">
            44 -48 -52 16 -48 hhcurveto
            -96 -87 -69 -122 hvcurveto
            return
          </CharString>
          <CharString index="139">
            91 -7 139 567 -20 return
          </CharString>
          <CharString index="140">
            151 202 151 return
          </CharString>
          <CharString index="141">
            156 699 return
          </CharString>
          <CharString index="142">
            52 callsubr
            194 141 return
          </CharString>
          <CharString index="143">
            hstem
            41 152 236 152 return
          </CharString>
          <CharString index="144">
            34 callsubr
            vlineto
            return
          </CharString>
          <CharString index="145">
            -150 -538 return
          </CharString>
          <CharString index="146">
            -13 -20 -9 -21 -25 vvcurveto
            -53 38 -29 44 return
          </CharString>
          <CharString index="147">
            6 -173 -21 186 128 301 return
          </CharString>
          <CharString index="148">
            29 callsubr
            vstem
            return
          </CharString>
          <CharString index="149">
            hstemhm
            30 callsubr
            return
          </CharString>
          <CharString index="150">
            40 callsubr
            117 -117 126 hstemhm
            return
          </CharString>
          <CharString index="151">
            21 51 callsubr
            return
          </CharString>
          <CharString index="152">
            40 151 267 return
          </CharString>
          <CharString index="153">
            rlineto
            -44 48 53 -20 return
          </CharString>
          <CharString index="154">
            6 -8 128 -120 120 301 126 195 -20 hstemhm
            return
          </CharString>
          <CharString index="155">
            73 -42 callsubr
            -155 -58 callsubr
            endchar
          </CharString>
          <CharString index="156">
            72 -42 callsubr
            -155 -58 callsubr
            endchar
          </CharString>
          <CharString index="157">
            hhcurveto
            -204 -163 -155 -207 return
          </CharString>
          <CharString index="158">
            -21 538 -20 return
          </CharString>
          <CharString index="159">
            hstemhm
            42 151 return
          </CharString>
          <CharString index="160">
            rlineto
            151 hlineto
            return
          </CharString>
          <CharString index="161">
            -8 91 -62 -21 183 90 128 91 100 90 17 -20 hstemhm
            return
          </CharString>
          <CharString index="162">
            119 vstem
            71 431 57 callsubr
            return
          </CharString>
          <CharString index="163">
            -12 19 callsubr
            return
          </CharString>
          <CharString index="164">
            rmoveto
            119 268 -119 hlineto
            return
          </CharString>
          <CharString index="165">
            59 -48 48 -59 -59 -48 -48 -59 return
          </CharString>
          <CharString index="166">
            -70 -212 138 612 -20 return
          </CharString>
          <CharString index="167" raw="1">
            fb62fb62 0b  
          </CharString>
          <CharString index="168">
            rlineto
            -169 hlineto
            return
          </CharString>
          <CharString index="169">
            -364 -762 rlineto
            115 hlineto
            364 762 rlineto
            return
          </CharString>
          <CharString index="170">
            -250 rmoveto
            126 hlineto
            80 195 rlineto
            -141 hlineto
            return
          </CharString>
          <CharString index="171">
            -249 21 -21 406 132 -132 141 return
          </CharString>
          <CharString index="172">
            rmoveto
            -84 -68 vlineto
            146 244 rlineto
            -110 hlineto
            return
          </CharString>
          <CharString index="173">
            382 547 rmoveto
            -64 -2 -61 -38 -36 -40 rrcurveto
            return
          </CharString>
          <CharString index="174">
            98 40 75 93 vhcurveto
            29 hlineto
            return
          </CharString>
          <CharString index="175">
            -111 46 callsubr
            return
          </CharString>
          <CharString index="176">
            538 38 callsubr
            vlineto
            return
          </CharString>
          <CharString index="177">
            -332 -37 callsubr
            return
          </CharString>
          <CharString index="178">
            106 173 106 return
          </CharString>
          <CharString index="179">
            -150 -742 return
          </CharString>
          <CharString index="180">
            -286 -134 113 665 113 hstem
            return
          </CharString>
          <CharString index="181">
            239 hlineto
            279 116 148 202 return
          </CharString>
          <CharString index="182">
            87 hlineto
            163 71 -81 -132 hvcurveto
            endchar
          </CharString>
          <CharString index="183">
            213 703 rmoveto
            -82 hlineto
            -73 -106 rlineto
            return
          </CharString>
          <CharString index="184">
            71 -150 23 callsubr
            233 vlineto
            return
          </CharString>
          <CharString index="185">
            rmoveto
            -123 486 123 vlineto
            endchar
          </CharString>
          <CharString index="186">
            21 -21 425 108 return
          </CharString>
          <CharString index="187">
            130 108 -130 return
          </CharString>
          <CharString index="188">
            -147 -247 rlineto
            -77 179 vlineto
            return
          </CharString>
          <CharString index="189">
            -140 -8 114 325 116 return
          </CharString>
          <CharString index="190">
            46 160 return
          </CharString>
          <CharString index="191">
            65 151 return
          </CharString>
          <CharString index="192">
            -22 -8 138 448 137 return
          </CharString>
          <CharString index="193">
            -139 -80 -73 -142 vhcurveto
            -99 return
          </CharString>
          <CharString index="194">
            -234 99 -46 -21 133 69 return
          </CharString>
          <CharString index="195">
            -236 99 -46 -21 223 -21 return
          </CharString>
          <CharString index="196">
            21 0 136 428 135 return
          </CharString>
          <CharString index="197">
            -104 -6 141 430 134 return
          </CharString>
          <CharString index="198">
            -107 0 125 289 124 return
          </CharString>
          <CharString index="199">
            0 178 -165 -21 106 80 return
          </CharString>
          <CharString index="200">
            219 -136 130 -251 return
          </CharString>
          <CharString index="201">
            79 91 rlineto
            73 -272 -92 vlineto
            return
          </CharString>
          <CharString index="202">
            rmoveto
            -123 487 123 vlineto
            return
          </CharString>
          <CharString index="203">
            130 196 -20 hstem
            193 return
          </CharString>
          <CharString index="204">
            -62 -50 -66 -29 -72 hhcurveto
            endchar
          </CharString>
          <CharString index="205">
            26 -11 24 -22 15 return
          </CharString>
          <CharString index="206">
            625 269 rmoveto
            return
          </CharString>
          <CharString index="207">
            165 20 165 return
          </CharString>
          <CharString index="208">
            742 -150 return
          </CharString>
          <CharString index="209">
            rlineto
            141 hlineto
            return
          </CharString>
          <CharString index="210">
            60 369 hstem
            return
          </CharString>
          <CharString index="211">
            21 -21 539 return
          </CharString>
          <CharString index="212">
            hstem
            30 callsubr
            return
          </CharString>
          <CharString index="213">
            148 hstemhm
            return
          </CharString>
        <CharString name=".notdef">
          -396 endchar
        </CharString>
        <CharString name="A">
          -100 callsubr
          endchar
        </CharString>
        <CharString name="AE">
          363 0 137 14 141 -12 131 151 137 hstemhm
          445 166 hintmask 10111000
          960 25 callsubr
          -617 hlineto
          -359 -699 rlineto
          184 hlineto
          hintmask 11011000
          79 151 rlineto
          198 hlineto
          hintmask 10111000
          -151 526 137 -360 143 313 131 -313 151 349 vlineto
          hintmask 11011000
          -515 -270 rmoveto
          -127 hlineto
          127 246 rlineto
          endchar
        </CharString>
        <CharString name="Aacute">
          -100 callsubr
          154 483 -42 callsubr
          -155 -58 callsubr
          endchar
        </CharString>
        <CharString name="Acircumflex">
          -100 callsubr
          -2 481 -99 callsubr
        </CharString>
        <CharString name="Adieresis">
          -100 callsubr
          -80 559 -107 callsubr
        </CharString>
        <CharString name="Agrave">
          -100 callsubr
          163 481 -77 callsubr
        </CharString>
        <CharString name="Aring">
          -66 callsubr
          697 rlineto
          20 20 12 26 30 vvcurveto
          58 callsubr
          -29 11 -26 19 -20 vhcurveto
          -301 -698 -80 callsubr
          53 485 rmoveto
          -5 callsubr
        </CharString>
        <CharString name="Atilde">
          -100 callsubr
          80 505 rmoveto
          -85 callsubr
          -84 callsubr
          -27 callsubr
        </CharString>
        <CharString name="B">
          29 0 132 161 123 151 132 hstemhm
          24 callsubr
          202 161 -122 161 hintmask 11110100
          392 hmoveto
          201 51 108 86 89 -56 62 -86 18 hvcurveto
          hintmask 11111000
          34 16 69 28 107 vvcurveto
          79 -46 106 -201 vhcurveto
          -272 -699 hlineto
          156 416 rmoveto
          151 75 vlineto
          84 43 -9 -69 -65 -54 -8 -74 hvcurveto
          -74 -284 rmoveto
          161 92 vlineto
          hintmask 11110100
          93 56 -10 -69 -71 -56 -11 -78 hvcurveto
          endchar
        </CharString>
        <CharString name="C">
          72 -8 146 428 149 hstem
          44 161 vstem
          -25 callsubr
          -211 159 -150 204 133 93 64 70 62 hvcurveto
          -100 103 rlineto
          97 callsubr
        </CharString>
        <CharString name="CR">
          -396 endchar
        </CharString>
        <CharString name="Ccedilla">
          72 88 callsubr
          568 149 hstemhm
          44 161 170 117 hintmask 01111000
          -25 callsubr
          -187 125 -139 171 -29 -41 callsubr
          26 48 109 13 78 56 55 62 rlinecurve
          -100 103 rlineto
          hintmask 01111000
          97 callsubr
        </CharString>
        <CharString name="D">
          109 0 138 425 136 13 callsubr
          321 157 vstem
          720 350 rmoveto
          93 callsubr
          vhcurveto
          -247 -699 74 callsubr
          hvcurveto
          -157 hmoveto
          86 callsubr
          425 75 callsubr
        </CharString>
        <CharString name="Delta">
          143 0 136 562 -20 hstem
          30 743 vstem
          472 698 rmoveto
          -141 hlineto
          -301 -698 rlineto
          743 hlineto
          -518 136 rmoveto
          146 335 146 -335 rlineto
          endchar
        </CharString>
        <CharString name="E">
          -62 callsubr
          endchar
        </CharString>
        <CharString name="Eacute">
          -62 callsubr
          -195 211 -42 callsubr
          -155 -58 callsubr
          endchar
        </CharString>
        <CharString name="Ecircumflex">
          -24 callsubr
          70 158 -64 callsubr
          -351 209 -99 callsubr
        </CharString>
        <CharString name="Edieresis">
          -24 callsubr
          74 106 callsubr
          24 callsubr
          -72 22 callsubr
          hintmask 11101000
          -69 callsubr
          hintmask 11110110
          -420 287 -107 callsubr
        </CharString>
        <CharString name="Egrave">
          -62 callsubr
          -186 209 -77 callsubr
        </CharString>
        <CharString name="Eth">
          124 0 138 142 133 150 136 hstem
          100 156 321 157 vstem
          26 280 rmoveto
          74 -280 74 callsubr
          93 callsubr
          hvcurveto
          -247 -286 -74 hlineto
          551 -63 rmoveto
          86 callsubr
          142 234 133 -234 150 75 callsubr
        </CharString>
        <CharString name="Euro">
          106 -8 148 97 84 59 84 103 148 hstem
          129 156 vstem
          46 380 rmoveto
          84 hlineto
          -1 -10 0 -10 -10 vvcurveto
          -10 0 -10 1 -9 vhcurveto
          -84 -84 97 hlineto
          -148 41 119 -97 152 hhcurveto
          88 101 37 88 76 hvcurveto
          -92 102 rlineto
          -54 -43 -61 -25 -58 hhcurveto
          -64 -60 32 65 -33 hvcurveto
          228 84 -251 hlineto
          -1 9 0 10 11 vvcurveto
          10 0 9 1 10 vhcurveto
          251 84 -233 hlineto
          72 30 59 31 66 hhcurveto
          64 58 -28 -61 50 hvcurveto
          89 116 rlineto
          70 -62 -76 51 -119 hhcurveto
          -165 -116 -103 -148 -39 hvcurveto
          -97 hlineto
          endchar
        </CharString>
        <CharString name="F">
          -48 21 -21 274 137 151 137 13 callsubr
          vstem
          566 25 callsubr
          -480 -12 callsubr
          274 308 137 -308 151 324 hlineto
          endchar
        </CharString>
        <CharString name="G">
          90 -8 141 438 144 hstem
          46 161 333 157 vstem
          540 356 rmoveto
          -192 vlineto
          -22 -38 -44 -9 -48 hhcurveto
          -110 -93 82 136 135 95 85 116 58 48 -15 -57 66 hvcurveto
          81 117 rlineto
          56 -63 -83 43 -112 50 callsubr
          -211 159 -150 204 131 96 48 68 61 hvcurveto
          248 vlineto
          endchar
        </CharString>
        <CharString name="H">
          102 21 -21 275 132 292 -20 13 callsubr
          278 156 vstem
          520 25 callsubr
          -292 -278 292 -156 -12 callsubr
          275 278 -275 37 callsubr
          endchar
        </CharString>
        <CharString name="I">
          -32 callsubr
          endchar
        </CharString>
        <CharString name="Iacute">
          -32 callsubr
          -6 49 callsubr
        </CharString>
        <CharString name="Icircumflex">
          70 callsubr
          91 158 13 callsubr
          vstem
          -13 callsubr
          699 vlineto
          -161 71 -99 callsubr
        </CharString>
        <CharString name="Idieresis">
          70 callsubr
          94 106 callsubr
          -7 148 -55 156 -56 148 hintmask 11101000
          -13 callsubr
          699 vlineto
          hintmask 11110100
          -249 148 -107 callsubr
        </CharString>
        <CharString name="Igrave">
          -32 callsubr
          3 70 -77 callsubr
        </CharString>
        <CharString name="Itilde">
          70 callsubr
          87 18 callsubr
          -30 106 10 156 7 106 hintmask 11010100
          -13 callsubr
          699 vlineto
          -80 94 rmoveto
          hintmask 11100100
          -4 callsubr
          hintmask 11100010
          -45 callsubr
        </CharString>
        <CharString name="J">
          90 callsubr
          -40 callsubr
          endchar
        </CharString>
        <CharString name="Jcircumflex">
          90 callsubr
          70 158 -40 callsubr
          102 70 -99 callsubr
        </CharString>
        <CharString name="K">
          50 -44 callsubr
          198 vlineto
          70 78 205 -276 rlineto
          182 hlineto
          -87 121 -103 146 -88 123 278 309 rcurveline
          -193 hlineto
          -264 -287 rlineto
          287 vlineto
          endchar
        </CharString>
        <CharString name="L">
          -92 0 139 560 -20 13 callsubr
          vstem
          86 hmoveto
          454 139 -298 560 -156 hlineto
          endchar
        </CharString>
        <CharString name="Lslash">
          -76 0 139 559 -20 hstem
          102 156 vstem
          28 178 rmoveto
          74 23 rlineto
          -201 454 139 -298 111 vlineto
          205 65 rlineto
          136 vlineto
          -205 -65 rlineto
          312 -156 -361 vlineto
          -74 -24 rlineto
          endchar
        </CharString>
        <CharString name="M">
          294 -30 callsubr
          470 156 vstem
          430 58 rmoveto
          93 hlineto
          62 124 64 131 63 127 rrcurveto
          -440 34 callsubr
          -210 vlineto
          -181 -384 -180 384 rlineto
          -211 -12 callsubr
          440 hlineto
          endchar
        </CharString>
        <CharString name="N">
          -39 callsubr
          endchar
        </CharString>
        <CharString name="NULL">
          -660 endchar
        </CharString>
        <CharString name="Nacute">
          -39 callsubr
          -104 49 callsubr
        </CharString>
        <CharString name="Ntilde">
          157 -37 callsubr
          86 18 callsubr
          24 callsubr
          -28 71 callsubr
          -24 156 hintmask 11011001
          -53 callsubr
          -169 93 -52 callsubr
        </CharString>
        <CharString name="O">
          -90 callsubr
          endchar
        </CharString>
        <CharString name="OE">
          382 0 131 -131 -2 callsubr
          138 -131 131 hstemhm
          47 166 260 157 hintmask 01110110
          978 698 rmoveto
          -575 hlineto
          -201 -155 -149 -200 -200 155 -149 201 hvcurveto
          586 138 -359 145 312 133 -312 144 348 hlineto
          hintmask 10101110
          -765 -211 rmoveto
          120 87 98 113 vhcurveto
          60 -436 -60 hlineto
          -113 -87 99 119 hvcurveto
          endchar
        </CharString>
        <CharString name="Oacute">
          -90 callsubr
          72 778 -42 callsubr
          -155 -58 callsubr
          endchar
        </CharString>
        <CharString name="Ocircumflex">
          -9 callsubr
          54 158 -98 callsubr
          -84 776 -99 callsubr
        </CharString>
        <CharString name="Odieresis">
          -9 callsubr
          58 148 hstem
          83 callsubr
          35 22 callsubr
          39 -103 callsubr
          -172 854 -107 callsubr
        </CharString>
        <CharString name="Ograve">
          -90 callsubr
          81 776 -77 callsubr
        </CharString>
        <CharString name="Omega">
          240 0 138 441 136 hstem
          85 146 438 146 vstem
          450 715 rmoveto
          -222 -143 -159 -183 -82 35 -84 81 -69 hvcurveto
          -147 -138 358 132 hlineto
          -112 36 -69 111 98 vvcurveto
          111 79 91 140 140 79 -91 -111 -98 -69 -111 -112 -36 vhcurveto
          -132 358 138 -147 vlineto
          81 69 35 84 82 vvcurveto
          183 -143 159 -222 vhcurveto
          endchar
        </CharString>
        <CharString name="Oslash">
          166 -7 136 -107 -21 578 136 -13 -20 hstemhm
          83 callsubr
          415 159 hintmask 10101100
          560 805 rmoveto
          hintmask 10011100
          -47 -103 rlineto
          hintmask 01101100
          8 -32 -33 5 -35 hhcurveto
          -29 callsubr
          -132 66 -111 102 -63 hvcurveto
          -73 -160 102 callsubr
          52 113 rlineto
          hintmask 10101100
          -5 25 27 -3 27 hhcurveto
          -14 callsubr
          124 -59 106 -91 64 hvcurveto
          72 157 rlineto
          -289 -226 rmoveto
          14 14 -2 -3 14 hvcurveto
          -179 -390 rlineto
          -44 41 -26 61 67 vvcurveto
          125 90 101 117 vhcurveto
          208 -226 rmoveto
          -123 -90 -101 -118 -7 -7 0 1 -6 vhcurveto
          172 378 rlineto
          35 -41 21 -54 -60 vvcurveto
          endchar
        </CharString>
        <CharString name="Otilde">
          -9 callsubr
          50 18 callsubr
          83 callsubr
          13 71 callsubr
          17 159 hintmask 11011001
          -105 callsubr
          -2 799 rmoveto
          hintmask 11101011
          -85 callsubr
          hintmask 11011101
          -48 callsubr
        </CharString>
        <CharString name="P">
          17 21 -21 195 135 235 134 13 callsubr
          239 160 vstem
          641 451 rmoveto
          160 -89 88 -219 vhcurveto
          -247 -12 callsubr
          195 93 hlineto
          202 104 71 185 hvcurveto
          -160 hmoveto
          -68 -22 -53 -112 vhcurveto
          -105 235 89 hlineto
          99 51 -27 -87 hvcurveto
          endchar
        </CharString>
        <CharString name="Q">
          167 -133 125 1 136 450 136 hstemhm
          83 callsubr
          415 159 hintmask 01111000
          780 354 rmoveto
          -82 callsubr
          vhcurveto
          hintmask 10111000
          -83 43 88 -43 76 hhcurveto
          70 81 23 68 64 hvcurveto
          -81 97 rlineto
          0 -29 -63 -84 -23 -31 15 21 -12 vhcurveto
          hintmask 01111000
          123 57 82 121 148 vvcurveto
          -367 225 -87 callsubr
          endchar
        </CharString>
        <CharString name="R">
          -61 callsubr
          endchar
        </CharString>
        <CharString name="Racute">
          -61 callsubr
          -147 304 -42 callsubr
          -155 -58 callsubr
          endchar
        </CharString>
        <CharString name="Rcaron">
          67 21 28 callsubr
          70 158 -86 callsubr
          -364 460 -81 callsubr
        </CharString>
        <CharString name="Rcommaaccent">
          67 -250 195 76 28 callsubr
          13 callsubr
          252 159 vstem
          246 63 callsubr
          342 522 -92 callsubr
          endchar
        </CharString>
        <CharString name="S">
          85 callsubr
          -65 callsubr
          endchar
        </CharString>
        <CharString name="Scaron">
          85 callsubr
          54 158 -65 callsubr
          -126 414 -81 callsubr
        </CharString>
        <CharString name="T">
          -52 21 -21 564 135 hstem
          226 156 vstem
          382 564 rmoveto
          198 135 -552 -135 198 -564 156 hlineto
          endchar
        </CharString>
        <CharString name="Thorn">
          25 21 -21 111 135 234 135 -135 219 hstemhm
          24 callsubr
          239 160 hintmask 11011100
          641 368 rmoveto
          hintmask 11101100
          159 -99 88 -219 vhcurveto
          -81 hlineto
          hintmask 11011100
          84 -156 -12 callsubr
          111 83 vlineto
          202 114 71 186 hvcurveto
          -160 hmoveto
          -69 -30 -53 -114 vhcurveto
          -95 234 79 hlineto
          101 59 -26 -86 hvcurveto
          endchar
        </CharString>
        <CharString name="U">
          -76 callsubr
          endchar
        </CharString>
        <CharString name="Uacute">
          -76 callsubr
          71 639 -42 callsubr
          -155 -58 callsubr
          endchar
        </CharString>
        <CharString name="Ucircumflex">
          32 callsubr
          90 158 -89 callsubr
          -85 637 -99 callsubr
        </CharString>
        <CharString name="Udieresis">
          32 callsubr
          94 106 callsubr
          76 156 -28 22 callsubr
          -26 156 hintmask 11110010
          -93 callsubr
          hintmask 11101100
          -172 715 -107 callsubr
        </CharString>
        <CharString name="Ugrave">
          -76 callsubr
          79 637 -77 callsubr
        </CharString>
        <CharString name="V">
          28 -35 callsubr
          -3 694 vstem
          344 254 rmoveto
          -178 445 61 callsubr
          281 -699 rlineto
          132 hlineto
          281 699 61 callsubr
          endchar
        </CharString>
        <CharString name="W">
          359 -35 callsubr
          -3 1025 vstem
          304 297 rmoveto
          -138 402 61 callsubr
          244 -699 rlineto
          116 hlineto
          152 486 153 -486 rlineto
          116 hlineto
          244 699 61 callsubr
          -139 -402 -123 402 rlineto
          -163 hlineto
          endchar
        </CharString>
        <CharString name="X">
          35 -35 callsubr
          10 675 vstem
          479 25 callsubr
          -133 -207 -133 207 rlineto
          -187 hlineto
          219 -341 -235 -358 rlineto
          188 hlineto
          148 230 149 -230 rlineto
          190 hlineto
          -236 362 218 337 rlineto
          endchar
        </CharString>
        <CharString name="Y">
          -34 callsubr
          endchar
        </CharString>
        <CharString name="Yacute">
          -34 callsubr
          52 332 -42 callsubr
          -155 -58 callsubr
          endchar
        </CharString>
        <CharString name="Z">
          89 callsubr
          -3 callsubr
          endchar
        </CharString>
        <CharString name="Zcaron">
          89 callsubr
          70 158 -3 callsubr
          81 820 -81 callsubr
        </CharString>
        <CharString name="a">
          -97 callsubr
          endchar
        </CharString>
        <CharString name="aacute">
          -97 callsubr
          -29 380 -42 callsubr
          -155 -58 callsubr
          endchar
        </CharString>
        <CharString name="acircumflex">
          -54 callsubr
          64 158 35 callsubr
          hintmask 01111110
          -96 callsubr
          21 callsubr
          hvcurveto
          hintmask 10111110
          -49 callsubr
          vhcurveto
          hintmask 01111110
          -65 vlineto
          hintmask 10111110
          -67 callsubr
          -160 380 -99 callsubr
        </CharString>
        <CharString name="acute">
          -278 771 177 hstem
          50 282 vstem
          193 771 -42 callsubr
          -155 -58 callsubr
          endchar
        </CharString>
        <CharString name="adieresis">
          -54 callsubr
          70 148 52 callsubr
          -63 22 callsubr
          -84 141 hintmask 0111010010000000
          -96 callsubr
          21 callsubr
          hvcurveto
          hintmask 1011010010000000
          -49 callsubr
          vhcurveto
          hintmask 0111010010000000
          -65 vlineto
          hintmask 1011010010000000
          -67 callsubr
          hintmask 0111101100000000
          -247 460 -107 callsubr
        </CharString>
        <CharString name="ae">
          276 -8 124 103 115 89 124 hstem
          40 151 184 151 vstem
          895 219 rmoveto
          77 vlineto
          162 -115 89 -143 -61 -58 -19 -37 -46 vhcurveto
          40 -42 -61 16 -65 hhcurveto
          -78 -73 -22 -65 -81 hvcurveto
          67 -97 rlineto
          41 58 45 21 47 hhcurveto
          48 39 -20 -64 hvcurveto
          -7 -112 vlineto
          -131 -93 -45 -118 -109 99 -70 113 64 71 15 61 62 hvcurveto
          -49 48 67 -27 74 hhcurveto
          78 73 20 81 77 hvcurveto
          -88 98 rlineto
          -55 -45 -44 -20 -43 hhcurveto
          -57 -52 37 61 -11 hvcurveto
          5 vlineto
          -151 -14 -46 callsubr
          41 42 3 48 vhcurveto
          94 hlineto
          153 115 rmoveto
          57 13 49 32 52 hhcurveto
          50 41 -29 -60 9 hvcurveto
          endchar
        </CharString>
        <CharString name="agrave">
          -97 callsubr
          35 380 -77 callsubr
        </CharString>
        <CharString name="ampersand">
          40 -8 125 480 118 hstemhm
          47 149 -65 150 115 145 hintmask 11101000
          520 364 rmoveto
          -9 -36 -13 -32 -16 -29 -38 42 -22 29 -24 30 rrcurveto
          88 52 55 57 73 vvcurveto
          112 -105 53 -89 vhcurveto
          hintmask 11011000
          -117 -99 -57 -118 -60 25 -36 38 -46 hvcurveto
          hintmask 11101000
          -93 -54 -54 -64 -77 vvcurveto
          -137 116 -74 127 64 72 13 55 68 vhcurveto
          87 -89 99 94 -99 98 20 33 19 38 17 46 rlinecurve
          -340 -163 rmoveto
          -56 -45 33 48 39 32 36 45 28 hvcurveto
          26 -31 43 -49 57 -60 rrcurveto
          -28 -34 -36 -16 -32 hhcurveto
          hintmask 11011000
          -16 425 rmoveto
          34 30 21 25 29 31 -17 -42 -23 -23 -24 -52 -28 vhcurveto
          -27 34 -13 20 25 vvcurveto
          endchar
        </CharString>
        <CharString name="approxequal">
          12 190 214 -210 214 23 214 -210 214 hstemhm
          81 141 230 141 hintmask 10011100
          hintmask 01011100
          337 226 rmoveto
          hintmask 10011100
          16 callsubr
          hintmask 01011100
          17 callsubr
          hintmask 10011100
          241 vmoveto
          hintmask 10101100
          16 callsubr
          hintmask 10011100
          17 callsubr
          endchar
        </CharString>
        <CharString name="aring">
          -54 callsubr
          49 72 70 72 52 callsubr
          6 72 70 72 -26 141 hintmask 0111000101000000
          -96 callsubr
          hintmask 1011001001000000
          21 callsubr
          -49 callsubr
          hvcurveto
          hintmask 0111000101000000
          -65 vlineto
          hintmask 1011001001000000
          -67 callsubr
          hintmask 0111110110000000
          -178 472 -18 callsubr
        </CharString>
        <CharString name="asciicircum">
          -177 771 177 hstem
          22 439 vstem
          165 771 rmoveto
          76 85 77 -85 rlineto
          143 hlineto
          -137 177 rlineto
          -165 hlineto
          -137 -7 callsubr
        </CharString>
        <CharString name="asciitilde">
          -125 289 125 -60 124 hstemhm
          25 119 243 120 hintmask 01110000
          hintmask 10110000
          368 289 rmoveto
          69 62 39 119 8 hvcurveto
          -120 32 rlineto
          -33 7 -7 -32 -30 hhcurveto
          hintmask 01110000
          -49 -66 64 -67 hhcurveto
          -81 -60 -50 -111 -9 hvcurveto
          119 -36 rlineto
          51 -1 23 22 20 hhcurveto
          hintmask 10110000
          47 72 -65 63 hhcurveto
          endchar
        </CharString>
        <CharString name="asterisk">
          -204 363 336 0 -20 hstemhm
          175 106 hintmask 01100000
          278 447 rmoveto
          71 -49 51 91 -84 42 85 42 -52 89 -71 -47 6 84 rlineto
          -112 hlineto
          6 -84 -71 47 -52 -89 85 -42 -84 -42 rlineto
          hintmask 10100000
          51 -91 71 49 -6 -84 rlineto
          112 hlineto
          endchar
        </CharString>
        <CharString name="at">
          231 -121 75 79 89 -79 111 235 114 -53 41 108 75 hstemhm
          48 88 80 128 190 124 98 87 hintmask 1011011111000000
          hintmask 1100111111000000
          688 122 rmoveto
          -18 -12 16 34 hvcurveto
          319 -125 -41 vlineto
          hintmask 1011011111000000
          0 -42 53 -70 -126 -79 -107 -125 -138 103 -90 104 50 52 19 52 40 vhcurveto
          hintmask 1101011111000000
          -47 16 46 -34 51 hhcurveto
          99 66 96 147 227 -169 171 -222 -223 -181 -181 -225 -221 170 -168 222 72 93 31 47 54 hvcurveto
          -41 71 rlineto
          -52 -54 -70 -22 -54 hhcurveto
          -172 -132 135 179 182 142 149 174 195 109 -144 -182 hvcurveto
          hintmask 1100111111000000
          -89 -33 -62 -35 vhcurveto
          hintmask 1011011111000000
          -252 267 rmoveto
          62 36 -52 -62 -65 -33 -56 -64 -58 -35 58 64 60 36 53 56 hvcurveto
          endchar
        </CharString>
        <CharString name="atilde">
          -54 callsubr
          61 18 callsubr
          42 151 -96 71 callsubr
          -95 141 hintmask 0111001001000000
          -96 callsubr
          21 callsubr
          hvcurveto
          hintmask 1011001001000000
          -49 callsubr
          vhcurveto
          hintmask 0111001001000000
          -65 vlineto
          hintmask 1011011001000000
          -67 callsubr
          -88 404 rmoveto
          hintmask 0111101010000000
          -85 callsubr
          hintmask 0111010101000000
          -84 callsubr
          hintmask 1011011001000000
          -27 callsubr
        </CharString>
        <CharString name="b">
          47 callsubr
          71 150 253 151 hintmask 10111100
          99 callsubr
          175 -121 103 -123 -57 -60 -21 -48 -43 vhcurveto
          264 -150 vlineto
          hintmask 01111100
          -742 150 vlineto
          hintmask 10111100
          71 vlineto
          -58 46 57 -21 56 hhcurveto
          123 122 120 157 -38 callsubr
        </CharString>
        <CharString name="backslash">
          -88 21 -21 757 -20 hstem
          28 515 vstem
          28 757 rmoveto
          364 -757 53 callsubr
          -364 757 rlineto
          endchar
        </CharString>
        <CharString name="bar">
          -384 -146 923 hstem
          76 124 vstem
          76 -146 rmoveto
          124 923 -124 hlineto
          endchar
        </CharString>
        <CharString name="braceleft">
          -300 -140 122 267 122 265 121 hstem
          106 140 vstem
          311 -140 rmoveto
          122 vlineto
          -52 -13 13 20 hvcurveto
          218 vlineto
          38 -15 25 -22 14 vhcurveto
          22 15 15 24 39 vvcurveto
          209 vlineto
          33 21 6 23 vhcurveto
          7 7 -1 7 hhcurveto
          122 -55 vlineto
          -69 -81 -22 -121 hvcurveto
          -201 vlineto
          -32 -8 -10 -15 vhcurveto
          -46 -122 46 hlineto
          15 8 -9 -32 hvcurveto
          -205 vlineto
          -121 81 -22 69 vhcurveto
          endchar
        </CharString>
        <CharString name="braceright">
          -300 -140 121 265 122 267 122 hstem
          114 140 vstem
          49 757 rmoveto
          -122 vlineto
          52 13 -13 -20 hvcurveto
          -218 vlineto
          -38 15 -25 22 -14 vhcurveto
          -22 -15 -15 -24 -39 vvcurveto
          -209 vlineto
          -33 -21 -6 -23 vhcurveto
          -7 -7 1 -7 hhcurveto
          -122 55 vlineto
          69 81 22 121 hvcurveto
          201 vlineto
          32 8 10 15 vhcurveto
          46 122 -46 hlineto
          -15 -8 9 32 hvcurveto
          205 vlineto
          121 -81 22 -69 vhcurveto
          endchar
        </CharString>
        <CharString name="bracketleft">
          73 callsubr
          77 128 vstem
          334 757 rmoveto
          -257 -891 257 113 -129 665 129 hlineto
          endchar
        </CharString>
        <CharString name="bracketright">
          73 callsubr
          169 128 vstem
          40 -134 rmoveto
          257 891 -257 -113 129 -665 -129 hlineto
          endchar
        </CharString>
        <CharString name="breve">
          -92 552 174 hstem
          100 368 vstem
          284 666 rmoveto
          -33 -19 24 36 -11 hvcurveto
          -121 hlineto
          -110 9 73 -64 102 hhcurveto
          102 73 64 110 9 hvcurveto
          -121 hlineto
          -36 -11 -19 -24 -33 hhcurveto
          endchar
        </CharString>
        <CharString name="brokenbar">
          -366 409 345 0 -20 hstemhm
          80 134 hintmask 01100000
          hintmask 10100000
          80 409 rmoveto
          134 345 -134 hlineto
          -777 vmoveto
          134 344 -134 hlineto
          endchar
        </CharString>
        <CharString name="bullet">
          -222 178 278 hstem
          80 278 vstem
          80 317 rmoveto
          -77 62 -62 77 77 62 62 77 77 -62 62 -77 -77 -62 -62 -77 vhcurveto
          endchar
        </CharString>
        <CharString name="c">
          -78 -8 133 290 132 hstem
          40 147 vstem
          464 -11 callsubr
          -170 136 -106 145 79 80 32 76 73 hvcurveto
          endchar
        </CharString>
        <CharString name="caron">
          -47 760 158 hstem
          100 413 vstem
          100 918 -81 callsubr
        </CharString>
        <CharString name="ccedilla">
          -77 88 callsubr
          417 132 hstemhm
          41 147 109 117 hintmask 01111000
          465 -11 callsubr
          -146 100 -99 121 -25 -41 callsubr
          27 50 61 12 60 32 57 59 rlinecurve
          endchar
        </CharString>
        <CharString name="cedilla">
          -379 87 callsubr
          hstemhm
          14 230 -117 117 hintmask 01110000
          hintmask 10101000
          207 hmoveto
          -115 hlineto
          -57 callsubr
          hintmask 01110000
          -38 -86 rlineto
          hintmask 10101000
          -31 callsubr
          endchar
        </CharString>
        <CharString name="cent">
          -62 17 -21 22 -21 545 -20 21 -20 hstemhm
          46 147 87 96 hintmask 01011100
          470 200 rmoveto
          0 -36 -51 -58 -18 vhcurveto
          279 vlineto
          36 -8 36 -21 27 -31 78 102 rcurveline
          -51 52 -64 30 -62 9 rrcurveto
          114 -96 vlineto
          hintmask 10101100
          -115 vlineto
          -127 -21 -107 -101 -152 vvcurveto
          -152 108 -100 126 -20 vhcurveto
          -113 96 vlineto
          hintmask 01011100
          114 vlineto
          63 10 62 32 58 61 rrcurveto
          -366 170 rmoveto
          70 38 45 49 19 vhcurveto
          -269 vlineto
          -48 18 -39 45 72 vvcurveto
          endchar
        </CharString>
        <CharString name="circumflex">
          -177 771 158 hstem
          35 413 vstem
          158 771 -99 callsubr
        </CharString>
        <CharString name="colon">
          -350 -8 176 87 176 hstem
          67 176 vstem
          67 80 -43 callsubr
          263 vmoveto
          -94 callsubr
        </CharString>
        <CharString name="comma">
          -363 -99 267 hstemhm
          53 188 -185 185 hintmask 11000000
          53 -99 rmoveto
          hintmask 10100000
          99 hlineto
          60 103 rlineto
          16 26 13 22 28 vvcurveto
          51 -43 37 -51 -48 -43 -37 -51 -28 14 -25 21 -15 vhcurveto
          endchar
        </CharString>
        <CharString name="copyright">
          164 -12 74 84 98 217 98 77 75 hstem
          51 74 85 113 376 -26 callsubr
          -156 -126 -132 -162 26 callsubr
          vhcurveto
          -169 -48 rmoveto
          -40 -24 -39 -18 -37 hhcurveto
          -55 -52 39 70 72 50 36 54 36 38 -16 -32 27 hvcurveto
          60 75 rlineto
          49 -47 -63 22 -55 hhcurveto
          -110 -103 -79 -129 -126 98 -79 108 59 63 24 57 54 hvcurveto
          endchar
        </CharString>
        <CharString name="currency">
          101 40 134 287 135 hstem
          96 156 256 157 vstem
          56 75 rmoveto
          93 -95 93 94 rlineto
          -22 40 47 -12 51 hhcurveto
          51 47 13 21 41 hvcurveto
          93 -94 93 95 -87 88 rlineto
          30 44 17 54 57 vvcurveto
          56 -16 52 -28 43 vhcurveto
          84 86 -94 95 -89 -90 rlineto
          23 -41 -48 13 -53 hhcurveto
          -52 -48 -13 -22 -41 hvcurveto
          -89 89 -94 -95 84 -85 rlineto
          -29 -44 -15 -52 -56 vvcurveto
          -58 16 -53 30 -44 vhcurveto
          238 11 rmoveto
          -74 -54 59 85 85 54 58 74 74 54 -58 -85 -85 -54 -59 -74 hvcurveto
          endchar
        </CharString>
        <CharString name="d">
          47 callsubr
          41 151 253 150 hintmask 10111100
          41 269 rmoveto
          -157 122 -120 123 56 57 21 58 46 vhcurveto
          hintmask 01111100
          -71 150 101 callsubr
          -264 vlineto
          48 -43 -60 21 -57 hhcurveto
          hintmask 10111100
          -123 -121 -103 -175 hvcurveto
          282 -149 rmoveto
          -67 -64 58 90 88 59 65 72 66 58 -63 -91 -87 -58 -60 -66 hvcurveto
          endchar
        </CharString>
        <CharString name="dagger">
          -122 373 96 callsubr
          145 vstem
          193 -185 rmoveto
          145 558 165 130 -165 196 -145 -196 -158 -130 158 hlineto
          endchar
        </CharString>
        <CharString name="daggerdbl">
          -126 71 111 191 96 callsubr
          146 vstem
          339 373 rmoveto
          158 130 -158 196 -146 -196 -155 -130 155 -191 -102 -111 102 -256 146 256 99 111 -99 hlineto
          endchar
        </CharString>
        <CharString name="degree">
          -232 388 82 160 84 hstem
          47 95 143 96 vstem
          214 714 rmoveto
          -92 -75 -74 -90 -90 75 -72 92 92 75 72 90 90 -75 74 -92 hvcurveto
          -1 -244 rmoveto
          -39 -32 35 46 44 32 35 39 41 31 -35 -44 -46 -31 -35 -41 hvcurveto
          endchar
        </CharString>
        <CharString name="dieresis">
          -129 617 148 hstem
          95 22 callsubr
          vstem
          95 691 -107 callsubr
        </CharString>
        <CharString name="divide">
          -78 72 176 40 123 40 176 hstem
          203 176 cntrmask 11100000
          203 160 -43 callsubr
          379 vmoveto
          -102 callsubr
          -155 -128 78 callsubr
        </CharString>
        <CharString name="dollar">
          -25 22 -21 702 -20 22 -20 69 -20 hstemhm
          67 160 43 106 51 160 hintmask 10110110
          270 -69 rmoveto
          106 70 hlineto
          126 14 85 77 121 vvcurveto
          114 -72 55 -139 36 vhcurveto
          144 vlineto
          36 -10 39 -20 42 -30 rrcurveto
          hintmask 11010110
          82 118 -66 46 -62 27 -71 10 rlinecurve
          51 -106 vlineto
          hintmask 10111110
          -49 vlineto
          -120 -15 -83 -78 -113 vvcurveto
          -122 72 -49 131 -34 vhcurveto
          -149 vlineto
          -47 14 -45 30 -49 43 -93 -113 rcurveline
          71 -63 80 -39 83 -13 rrcurveto
          157 198 rmoveto
          -30 -19 -22 -32 -10 vhcurveto
          123 vlineto
          40 -17 11 -17 -27 vvcurveto
          -200 307 rmoveto
          25 15 22 28 10 vhcurveto
          -116 vlineto
          -33 16 -10 17 26 vvcurveto
          endchar
        </CharString>
        <CharString name="dotaccent">
          -349 581 202 hstem
          55 202 vstem
          55 682 rmoveto
          -56 45 -45 56 56 45 45 56 56 -45 45 -56 -56 -45 -45 -56 vhcurveto
          endchar
        </CharString>
        <CharString name="dotlessi">
          21 -21 538 41 callsubr
          -17 callsubr
          endchar
        </CharString>
        <CharString name="e">
          -91 callsubr
          endchar
        </CharString>
        <CharString name="eacute">
          -91 callsubr
          -68 288 -42 callsubr
          -155 -58 callsubr
          endchar
        </CharString>
        <CharString name="ecircumflex">
          3 callsubr
          64 158 36 callsubr
          vstem
          -101 callsubr
          -204 288 -99 callsubr
        </CharString>
        <CharString name="edieresis">
          3 callsubr
          70 106 callsubr
          41 152 -48 22 callsubr
          -57 152 hintmask 11111001
          -101 callsubr
          hintmask 11110110
          -284 368 -107 callsubr
        </CharString>
        <CharString name="egrave">
          -91 callsubr
          -24 288 -77 callsubr
        </CharString>
        <CharString name="eight">
          -18 -8 130 185 120 167 121 hstemhm
          54 156 -132 148 190 147 -131 156 hintmask 11110010
          hintmask 11101100
          321 715 rmoveto
          -137 -106 -80 -117 -59 29 -41 34 -32 hvcurveto
          hintmask 11110010
          -51 -39 -36 -59 -78 vvcurveto
          -120 104 -98 163 162 105 98 120 78 -36 59 -51 39 vhcurveto
          hintmask 11110100
          34 32 28 41 59 vvcurveto
          hintmask 11101100
          117 -105 80 -137 vhcurveto
          hintmask 11110010
          -593 vmoveto
          -46 -65 27 63 68 61 27 50 50 61 -27 -68 -63 -65 -27 -46 hvcurveto
          hintmask 11101100
          305 vmoveto
          -49 -46 34 52 45 44 36 51 51 44 -36 -45 -52 -46 -34 -49 hvcurveto
          endchar
        </CharString>
        <CharString name="ellipsis">
          41 -9 176 hstemhm
          57 176 29 176 30 176 hintmask 11010000
          468 79 -43 callsubr
          hintmask 11110000
          -206 hmoveto
          -102 callsubr
          hintmask 11010000
          -205 hmoveto
          -94 callsubr
        </CharString>
        <CharString name="emdash">
          37 216 96 hstem
          64 569 vstem
          64 216 rmoveto
          569 96 -569 hlineto
          endchar
        </CharString>
        <CharString name="endash">
          -117 215 97 hstem
          74 395 vstem
          74 215 rmoveto
          395 97 -395 hlineto
          endchar
        </CharString>
        <CharString name="equal">
          -73 166 123 126 123 hstem
          50 487 vstem
          50 538 95 callsubr
          -487 -249 95 callsubr
          endchar
        </CharString>
        <CharString name="eth">
          -63 -8 126 238 126 219 -20 72 -20 hstem
          44 148 214 148 vstem
          396 753 rmoveto
          -79 -52 -13 12 -24 21 -32 26 rlinecurve
          -123 -73 37 -31 10 -8 12 -10 11 -10 rlinecurve
          -88 -57 81 -78 86 56 21 -23 21 -23 20 -25 rlinecurve
          3 -15 -15 1 -16 hhcurveto
          -133 -113 -99 -146 -147 113 -98 141 169 87 117 161 134 -74 120 -84 96 hvcurveto
          83 55 rlineto
          -181 -557 rmoveto
          -66 -40 56 63 62 40 57 66 67 41 -57 -62 -63 -41 -56 -67 hvcurveto
          endchar
        </CharString>
        <CharString name="exclam">
          -345 -8 176 531 -20 hstem
          69 177 vstem
          69 25 callsubr
          -124 vlineto
          29 -360 rlineto
          118 hlineto
          30 360 rlineto
          124 vlineto
          -177 -619 -68 callsubr
        </CharString>
        <CharString name="exclamdown">
          -342 104 callsubr
          176 hstem
          71 177 vstem
          248 hmoveto
          132 vlineto
          -30 360 rlineto
          -118 hlineto
          -29 -360 rlineto
          -132 vlineto
          627 vmoveto
          -94 callsubr
        </CharString>
        <CharString name="f">
          -258 79 callsubr
          101 123 hstem
          99 151 vstem
          2 callsubr
          -33 -63 -108 63 -425 151 425 80 callsubr
          vlineto
          endchar
        </CharString>
        <CharString name="fi">
          34 79 callsubr
          -108 113 43 176 -123 123 hstemhm
          99 151 210 176 -163 150 hintmask 10101101
          2 callsubr
          hintmask 11001101
          -33 -63 vlineto
          hintmask 10101101
          -108 63 -425 151 425 130 vlineto
          hintmask 11001101
          108 -130 vlineto
          373 -533 rmoveto
          hintmask 10101101
          69 callsubr
          hintmask 10101110
          -13 669 rmoveto
          hintmask 10110110
          -71 callsubr
          vhcurveto
          hintmask 10101110
          -79 callsubr
          endchar
        </CharString>
        <CharString name="five">
          -64 -8 141 193 130 108 135 hstem
          84 146 162 156 vstem
          506 25 callsubr
          -422 -341 hlineto
          65 -70 rlineto
          25 46 44 13 36 hhcurveto
          62 55 -32 -67 -64 -51 -30 -58 -74 -78 78 0 hvcurveto
          -82 -114 rlineto
          -30 27 76 -75 134 hhcurveto
          146 116 100 138 146 -121 80 -126 -25 -22 -2 -7 -24 hvcurveto
          117 276 vlineto
          endchar
        </CharString>
        <CharString name="fl">
          34 79 callsubr
          101 123 -60 45 0 -20 hstemhm
          99 151 223 150 hintmask 11001110
          hintmask 11100110
          12 callsubr
          hintmask 11010110
          54 101 rlineto
          hintmask 11100110
          31 callsubr
          -33 -63 -108 63 -425 151 425 80 callsubr
          vlineto
          373 -533 rmoveto
          hintmask 11001110
          742 72 callsubr
          vlineto
          endchar
        </CharString>
        <CharString name="florin">
          47 -202 132 386 108 195 138 hstem
          27 650 vstem
          224 316 rmoveto
          63 hlineto
          -43 -318 rlineto
          -47 -6 -24 -21 -33 hhcurveto
          -36 -25 15 26 -27 hvcurveto
          -66 -109 rlineto
          -44 48 63 -20 49 hhcurveto
          123 71 84 115 16 hvcurveto
          44 319 rlineto
          135 hlineto
          13 108 rlineto
          -133 hlineto
          18 129 rlineto
          44 8 28 22 29 hhcurveto
          23 27 -9 -26 16 hvcurveto
          72 111 rlineto
          45 -42 -58 17 -49 hhcurveto
          -94 -95 -61 -128 -17 hvcurveto
          -20 -144 rlineto
          -65 hlineto
          endchar
        </CharString>
        <CharString name="four">
          -72 28 103 451 96 hstem
          -69 115 448 112 vstem
          218 302 rmoveto
          237 397 rlineto
          -170 hlineto
          -249 -413 rlineto
          -119 281 -167 150 167 79 135 -79 122 -150 -122 vlineto
          endchar
        </CharString>
        <CharString name="fraction">
          2 21 -21 698 -20 hstem
          -5 673 vstem
          668 698 rmoveto
          -172 hlineto
          -501 -698 rlineto
          171 hlineto
          endchar
        </CharString>
        <CharString name="g">
          7 -212 132 92 126 281 120 -120 128 52 callsubr
          255 148 hintmask 11011100
          324 419 rmoveto
          66 58 -50 -87 -91 -58 -53 -66 -72 -59 55 88 90 64 48 67 hvcurveto
          145 -328 rmoveto
          -128 -81 -43 -89 -54 -62 19 37 -49 vhcurveto
          -58 -113 rlineto
          -50 65 91 -25 76 hhcurveto
          141 147 82 200 hvcurveto
          hintmask 11101100
          469 -150 vlineto
          hintmask 11011100
          -71 vlineto
          58 -46 -57 21 -56 hhcurveto
          -123 -122 -110 -157 -175 121 -93 123 77 63 31 48 43 hvcurveto
          endchar
        </CharString>
        <CharString name="germandbls">
          -13 0 126 498 133 hstemhm
          70 156 185 153 -115 156 hintmask 11101000
          279 304 rmoveto
          3 34 11 0 10 hhcurveto
          67 48 -27 -68 -67 -51 -19 -72 hvcurveto
          -44 -126 62 hlineto
          173 88 87 125 74 -34 78 -84 27 hvcurveto
          hintmask 11110000
          56 46 21 53 57 vvcurveto
          81 -44 129 -199 -251 0 -228 -79 vhcurveto
          -450 156 463 vlineto
          99 24 62 82 60 19 -50 -35 -54 -39 -46 -93 -14 vhcurveto
          endchar
        </CharString>
        <CharString name="grave">
          -278 769 178 hstem
          50 282 vstem
          332 769 -77 callsubr
        </CharString>
        <CharString name="greater">
          -59 97 595 hstem
          74 486 vstem
          560 9 callsubr
          endchar
        </CharString>
        <CharString name="greaterequal">
          -39 -70 121 hstem
          72 487 vstem
          559 9 callsubr
          -275 vmoveto
          -487 -121 487 hlineto
          endchar
        </CharString>
        <CharString name="guillemotleft">
          -56 103 callsubr
          48 498 vstem
          321 429 -20 callsubr
          343 184 -20 callsubr
          endchar
        </CharString>
        <CharString name="guillemotright">
          -56 103 callsubr
          58 498 vstem
          401 245 -21 callsubr
          -107 -184 -21 callsubr
          endchar
        </CharString>
        <CharString name="guilsinglleft">
          -281 103 callsubr
          48 273 vstem
          321 429 -20 callsubr
          endchar
        </CharString>
        <CharString name="guilsinglright">
          -281 103 callsubr
          58 273 vstem
          176 245 -21 callsubr
          endchar
        </CharString>
        <CharString name="h">
          -21 21 -21 418 129 195 29 callsubr
          203 150 vstem
          221 290 rmoveto
          15 callsubr
          264 72 callsubr
          150 vlineto
          endchar
        </CharString>
        <CharString name="hbar">
          -21 21 -21 418 129 27 87 -87 168 42 callsubr
          203 150 hintmask 10011100
          221 290 rmoveto
          hintmask 11011100
          15 callsubr
          hintmask 10011100
          96 110 vlineto
          hintmask 10101100
          87 -110 vlineto
          hintmask 10011100
          81 -150 vlineto
          hintmask 10101100
          -81 -47 vlineto
          hintmask 10011100
          -87 47 -574 150 vlineto
          endchar
        </CharString>
        <CharString name="hungarumlaut">
          -154 611 177 hstem
          16 494 vstem
          149 611 -42 callsubr
          -145 -58 callsubr
          355 hmoveto
          139 112 -145 65 -137 -7 callsubr
        </CharString>
        <CharString name="hyphen">
          -170 234 133 hstem
          67 356 vstem
          67 234 rmoveto
          356 133 -356 hlineto
          endchar
        </CharString>
        <CharString name="i">
          44 callsubr
          63 176 hstemhm
          58 176 -163 150 hintmask 11101000
          221 hmoveto
          69 callsubr
          hintmask 11110000
          -13 669 -68 callsubr
        </CharString>
        <CharString name="iacute">
          21 -21 538 41 callsubr
          -17 callsubr
          -2 48 callsubr
        </CharString>
        <CharString name="icircumflex">
          44 callsubr
          93 158 105 callsubr
          vstem
          145 682 rmoveto
          74 -71 rlineto
          113 hlineto
          -113 158 rlineto
          -147 hlineto
          -113 -158 rlineto
          113 hlineto
          -1 -73 -1 callsubr
          endchar
        </CharString>
        <CharString name="idieresis">
          44 callsubr
          99 106 callsubr
          -24 148 -53 150 -52 148 hintmask 11101000
          -17 callsubr
          hintmask 11110100
          -245 153 -107 callsubr
        </CharString>
        <CharString name="igrave">
          21 -21 538 41 callsubr
          -17 callsubr
          2 73 -77 callsubr
        </CharString>
        <CharString name="ij">
          -61 -202 132 91 51 callsubr
          62 176 hstemhm
          59 176 -164 150 157 150 hintmask 11110110
          221 hmoveto
          69 callsubr
          307 -8 rmoveto
          -40 -16 -22 -22 -14 -26 14 33 -34 vhcurveto
          -70 -115 27 callsubr
          550 -150 vlineto
          hintmask 11111010
          -319 130 -43 callsubr
          305 hmoveto
          -94 callsubr
        </CharString>
        <CharString name="infinity">
          197 78 121 135 119 hstem
          66 131 462 131 vstem
          245 453 rmoveto
          -111 -68 -83 -104 -107 71 -81 112 82 49 42 51 48 hvcurveto
          -51 48 49 -42 82 hhcurveto
          113 70 81 107 104 -67 83 -112 -82 -54 -45 -54 -47 hvcurveto
          54 -47 -54 45 -82 hhcurveto
          3 -254 rmoveto
          -31 -20 31 38 36 19 30 29 32 41 -40 -31 29 hvcurveto
          -30 -28 -38 -34 -33 hhcurveto
          363 135 rmoveto
          30 18 -30 -36 -38 -19 -31 -32 -33 -38 34 30 -27 hvcurveto
          31 29 41 40 31 hhcurveto
          endchar
        </CharString>
        <CharString name="integral">
          -224 -162 127 765 129 hstemhm
          149 137 -122 136 hintmask 11100000
          423 838 rmoveto
          10 -18 -39 11 -34 hhcurveto
          -149 -34 -116 -153 -79 3 -75 4 -74 hvcurveto
          hintmask 11010000
          4 -76 4 -77 -85 vvcurveto
          -104 -19 -55 -54 -17 -19 5 12 -24 vhcurveto
          -21 -119 rlineto
          -12 21 51 -13 33 hhcurveto
          145 40 125 146 85 -3 81 -4 79 hvcurveto
          hintmask 11100000
          -3 76 -4 73 76 vvcurveto
          119 20 32 49 15 14 -3 -7 22 vhcurveto
          endchar
        </CharString>
        <CharString name="itilde">
          44 callsubr
          90 18 callsubr
          -47 106 12 150 11 106 hintmask 11010100
          -17 callsubr
          -76 97 rmoveto
          hintmask 11100100
          -4 callsubr
          hintmask 11100110
          -45 callsubr
        </CharString>
        <CharString name="j">
          -317 -212 140 611 -20 62 176 hstem
          122 150 vstem
          122 7 callsubr
          561 -150 vlineto
          -13 130 -68 callsubr
        </CharString>
        <CharString name="jcircumflex">
          -212 140 610 -20 93 158 105 callsubr
          vstem
          71 7 callsubr
          560 -150 vlineto
          -9 73 -99 callsubr
        </CharString>
        <CharString name="k">
          -65 104 callsubr
          -20 223 41 callsubr
          -19 callsubr
          endchar
        </CharString>
        <CharString name="kcedilla">
          -65 87 callsubr
          104 callsubr
          -20 223 -20 42 callsubr
          73 117 hintmask 01011110
          -19 callsubr
          hintmask 10101111
          -211 hmoveto
          -115 hlineto
          -57 callsubr
          hintmask 01011110
          -38 -86 rlineto
          hintmask 10101111
          -31 callsubr
          endchar
        </CharString>
        <CharString name="kgreenlandic">
          -65 21 -21 538 41 callsubr
          372 321 rmoveto
          205 217 rlineto
          -189 hlineto
          -167 -177 rlineto
          177 -150 -538 11 callsubr
          endchar
        </CharString>
        <CharString name="l">
          21 -21 742 41 callsubr
          221 hmoveto
          742 72 callsubr
          vlineto
          endchar
        </CharString>
        <CharString name="ldot">
          -262 21 -21 232 176 334 29 callsubr
          36 176 vstem
          221 hmoveto
          742 72 callsubr
          vlineto
          186 320 -68 callsubr
        </CharString>
        <CharString name="less">
          -59 97 595 hstem
          41 486 vstem
          41 8 callsubr
          endchar
        </CharString>
        <CharString name="lessequal">
          -39 -70 121 hstem
          62 487 vstem
          62 8 callsubr
          -533 vmoveto
          487 121 -487 hlineto
          endchar
        </CharString>
        <CharString name="logicalnot">
          157 327 118 hstem
          620 112 vstem
          63 445 rmoveto
          -118 557 -239 112 357 vlineto
          endchar
        </CharString>
        <CharString name="lozenge">
          -24 33 435 hstem
          84 468 vstem
          84 33 rmoveto
          468 435 -468 hlineto
          endchar
        </CharString>
        <CharString name="lslash">
          -297 21 -21 698 -20 hstem
          113 151 vstem
          36 197 rmoveto
          77 23 rlineto
          -220 151 263 vlineto
          70 20 rlineto
          136 vlineto
          -70 -21 rlineto
          300 -151 -343 vlineto
          -77 -22 rlineto
          endchar
        </CharString>
        <CharString name="m">
          323 21 -21 418 120 -120 129 42 callsubr
          193 33 callsubr
          hintmask 10111100
          565 290 rmoveto
          90 57 38 54 58 33 -38 -86 vhcurveto
          -294 151 327 vlineto
          148 -90 72 -121 -67 -79 -35 -68 -43 vhcurveto
          52 -25 -57 51 -73 hhcurveto
          -52 -52 -27 -43 -38 hvcurveto
          hintmask 11011100
          61 -150 23 callsubr
          290 vlineto
          hintmask 10111100
          90 58 38 54 56 25 -38 -86 vhcurveto
          -294 151 vlineto
          endchar
        </CharString>
        <CharString name="macron">
          -218 571 116 hstem
          55 333 vstem
          388 687 rmoveto
          -333 -116 333 hlineto
          endchar
        </CharString>
        <CharString name="minus">
          -78 288 123 hstem
          48 486 vstem
          48 411 78 callsubr
        </CharString>
        <CharString name="mu">
          -13 -23 callsubr
          hstemhm
          79 33 callsubr
          hintmask 10111000
          79 -185 rmoveto
          151 hlineto
          hintmask 01111000
          184 vlineto
          hintmask 10111000
          -5 18 21 -2 21 hhcurveto
          54 50 19 34 38 hvcurveto
          hintmask 01111000
          -45 151 538 -151 -290 vlineto
          hintmask 10111000
          -51 callsubr
          vlineto
          endchar
        </CharString>
        <CharString name="multiply">
          -71 112 502 hstem
          48 493 vstem
          295 451 rmoveto
          -158 163 -88 -89 159 -161 -160 -163 88 -89 159 163 160 -163 86 89 -158 163 157 161 -86 89 rlineto
          endchar
        </CharString>
        <CharString name="n">
          -56 callsubr
          endchar
        </CharString>
        <CharString name="nacute">
          -56 callsubr
          158 611 -42 callsubr
          -155 -58 callsubr
          endchar
        </CharString>
        <CharString name="nine">
          -31 -8 134 119 133 206 131 hstem
          52 146 221 154 vstem
          72 73 rmoveto
          -35 45 64 -46 106 hhcurveto
          149 137 103 264 188 -68 168 -205 -139 -109 -89 -148 -142 102 -91 127 56 48 20 23 34 hvcurveto
          -94 -10 -43 -68 -91 hhcurveto
          -65 -60 57 0 hvcurveto
          255 295 rmoveto
          -64 -50 -36 -58 -65 -34 49 57 57 41 43 63 58 45 -51 -55 vhcurveto
          endchar
        </CharString>
        <CharString name="notequal">
          -15 214 121 91 121 152 -20 hstem
          63 517 vstem
          63 426 rmoveto
          207 hlineto
          -41 -91 rlineto
          -166 -121 111 hlineto
          -70 -153 102 callsubr
          70 153 rlineto
          265 121 -210 hlineto
          42 91 rlineto
          168 121 -113 hlineto
          70 152 rlineto
          -142 hlineto
          -70 -152 rlineto
          -262 hlineto
          endchar
        </CharString>
        <CharString name="ntilde">
          -21 21 -21 428 110 -110 119 61 18 callsubr
          71 150 -89 71 callsubr
          -93 150 hintmask 1010110010000000
          -55 callsubr
          hintmask 1100110010000000
          60 -150 23 callsubr
          vlineto
          103 635 rmoveto
          hintmask 1011010100000000
          -85 callsubr
          hintmask 1010101010000000
          -84 callsubr
          hintmask 1100110010000000
          -27 callsubr
        </CharString>
        <CharString name="numbersign">
          87 21 -21 152 138 125 138 162 -20 hstem
          44 660 vstem
          677 415 rmoveto
          27 138 rlineto
          -105 hlineto
          29 162 rlineto
          -152 hlineto
          -27 -162 rlineto
          -90 hlineto
          27 162 rlineto
          -151 hlineto
          -27 -162 rlineto
          -103 hlineto
          -27 -138 rlineto
          107 hlineto
          -21 -125 rlineto
          -93 hlineto
          -27 -138 rlineto
          96 hlineto
          -26 -152 53 callsubr
          26 152 rlineto
          91 hlineto
          -26 -152 rlineto
          150 hlineto
          26 152 rlineto
          111 hlineto
          27 138 rlineto
          -115 hlineto
          21 125 rlineto
          -149 hmoveto
          -9 -48 -5 -33 -8 -44 rrcurveto
          -91 hlineto
          22 125 rlineto
          endchar
        </CharString>
        <CharString name="o">
          -11 -88 callsubr
          endchar
        </CharString>
        <CharString name="oacute">
          -12 -88 callsubr
          57 619 -42 callsubr
          -155 -58 callsubr
          endchar
        </CharString>
        <CharString name="ocircumflex">
          56 callsubr
          64 158 -95 callsubr
          -79 619 -99 callsubr
        </CharString>
        <CharString name="odieresis">
          56 callsubr
          70 106 callsubr
          40 151 -37 22 callsubr
          -37 151 hintmask 11110010
          -104 callsubr
          hintmask 11101100
          -170 699 -107 callsubr
        </CharString>
        <CharString name="oe">
          375 -8 124 -124 128 96 107 96 128 -124 124 hstemhm
          45 callsubr
          152 236 152 hintmask 01110111
          hintmask 10110111
          870 -73 callsubr
          -73 -74 -29 -55 -52 vhcurveto
          52 -51 -72 32 -84 hhcurveto
          -28 callsubr
          hvcurveto
          hintmask 01110111
          -15 callsubr
          83 73 32 51 50 vhcurveto
          -54 51 73 -29 78 hhcurveto
          72 77 17 69 73 hvcurveto
          -630 42 -60 callsubr
          hvcurveto
          -1 vlineto
          -6 vlineto
          -84 -3 -55 -58 -76 hhcurveto
          286 203 rmoveto
          hintmask 01101111
          -47 callsubr
          endchar
        </CharString>
        <CharString name="ogonek">
          -445 -212 83 -83 204 21 -21 hstemhm
          18 80 hintmask 10110000
          71 -8 rmoveto
          0 -53 -63 -52 vvcurveto
          -51 34 -38 54 67 27 51 28 17 vhcurveto
          -51 33 rlineto
          0 -16 -29 -25 -19 -8 10 15 vhcurveto
          hintmask 01010000
          24 20 38 26 34 vhcurveto
          endchar
        </CharString>
        <CharString name="ograve">
          -12 -88 callsubr
          81 619 -77 callsubr
        </CharString>
        <CharString name="one">
          -257 21 -21 566 133 hstem
          164 150 vstem
          31 25 callsubr
          -133 133 -566 150 699 vlineto
          endchar
        </CharString>
        <CharString name="onehalf">
          218 0 96 -83 -21 348 92 176 91 55 -20 hstemhm
          113 107 495 108 hintmask 10111100
          551 754 rmoveto
          hintmask 01111110
          -364 -762 rlineto
          116 hlineto
          364 762 rlineto
          -631 -55 rmoveto
          -91 77 -332 107 423 vlineto
          495 -402 rmoveto
          -24 -23 -27 -42 -43 vhcurveto
          hintmask 10111110
          -22 callsubr
          hintmask 01111110
          23 16 -17 -26 hvcurveto
          endchar
        </CharString>
        <CharString name="onequarter">
          195 92 callsubr
          429 91 56 -20 hstemhm
          113 107 461 91 hintmask 10011110
          562 754 rmoveto
          hintmask 01011110
          62 callsubr
          -641 -56 rmoveto
          -91 77 -331 107 422 vlineto
          hintmask 10011110
          461 -436 65 callsubr
          hintmask 00111110
          81 callsubr
          hintmask 10011110
          -98 91 vlineto
          hintmask 00111110
          98 46 vlineto
          hintmask 10011110
          80 -46 84 vlineto
          endchar
        </CharString>
        <CharString name="onesuperior">
          -362 608 91 hstem
          118 107 vstem
          40 25 callsubr
          -91 78 -332 107 423 vlineto
          endchar
        </CharString>
        <CharString name="ordfeminine">
          -302 458 51 60 47 46 53 hstem
          51 79 85 74 vstem
          289 458 rmoveto
          162 vlineto
          71 -51 24 -58 -60 -43 -28 0 vhcurveto
          24 -44 rlineto
          0 35 19 37 21 17 -11 -32 vhcurveto
          -3 -51 vlineto
          -64 -45 -24 -54 -52 47 -31 46 28 29 12 22 14 hvcurveto
          -31 vlineto
          -5 96 rmoveto
          -28 -21 -17 -27 -18 -14 11 19 20 15 10 21 vhcurveto
          44 hlineto
          endchar
        </CharString>
        <CharString name="ordmasculine">
          -267 434 79 124 78 hstem
          49 96 103 96 vstem
          196 513 rmoveto
          -29 -22 24 37 37 22 26 29 30 22 -26 -37 -37 -22 -24 -30 hvcurveto
          -79 -8 callsubr
          -10 callsubr
          endchar
        </CharString>
        <CharString name="oslash">
          -12 -8 129 -105 -21 424 128 -7 -20 hstemhm
          45 callsubr
          151 hintmask 01101100
          hintmask 10011100
          324 -8 rmoveto
          -16 callsubr
          89 -40 78 -64 51 hvcurveto
          63 138 rlineto
          -142 hlineto
          -38 -85 rlineto
          hintmask 01101100
          5 -21 -21 2 -22 hhcurveto
          -28 callsubr
          -94 45 -84 74 -50 hvcurveto
          -65 -142 102 callsubr
          44 96 rlineto
          hintmask 10011100
          -2 15 15 -1 15 hhcurveto
          hintmask 10101100
          -133 277 rmoveto
          89 56 61 77 vhcurveto
          8 hlineto
          -113 -246 rlineto
          -18 25 -10 33 38 vvcurveto
          267 hmoveto
          -83 -50 -59 -71 -6 vhcurveto
          104 226 rlineto
          11 -22 6 -26 -30 vvcurveto
          endchar
        </CharString>
        <CharString name="otilde">
          56 callsubr
          61 18 callsubr
          40 151 -58 71 callsubr
          -60 151 hintmask 11011001
          -104 callsubr
          1 643 -52 callsubr
        </CharString>
        <CharString name="p">
          43 callsubr
          71 150 253 151 hintmask 11011100
          99 callsubr
          167 -120 111 -125 -55 -56 -21 -48 -48 vhcurveto
          hintmask 11101100
          60 -150 -732 150 265 vlineto
          -55 42 58 -24 56 hhcurveto
          hintmask 11011100
          132 116 118 159 -38 callsubr
        </CharString>
        <CharString name="paragraph">
          52 632 124 hstem
          260 130 98 133 vstem
          34 548 rmoveto
          -78 42 -122 164 vhcurveto
          20 -453 130 737 98 -737 133 861 -342 hlineto
          -177 -68 -103 -105 hvcurveto
          endchar
        </CharString>
        <CharString name="parenleft">
          -298 754 -20 hstem
          45 149 vstem
          194 313 rmoveto
          149 67 182 76 110 vhcurveto
          -162 hlineto
          -58 -82 -72 -186 -173 vvcurveto
          -173 72 -185 58 -82 vhcurveto
          162 hlineto
          -76 109 -67 183 148 vvcurveto
          endchar
        </CharString>
        <CharString name="parenright">
          -298 754 -20 hstem
          168 149 vstem
          168 313 rmoveto
          -148 -67 -183 -76 -109 vhcurveto
          162 hlineto
          58 82 72 185 173 vvcurveto
          173 -72 186 -58 82 vhcurveto
          -162 hlineto
          76 -110 67 -182 -149 vvcurveto
          endchar
        </CharString>
        <CharString name="partialdiff">
          -51 -8 139 184 130 144 127 hstem
          44 146 223 140 vstem
          154 553 rmoveto
          24 36 40 12 34 hhcurveto
          77 61 -59 -103 10 hvcurveto
          1 -12 0 -6 -12 vvcurveto
          32 -37 -53 16 -55 hhcurveto
          -109 -115 -66 -137 -144 103 -106 137 202 67 173 194 244 -131 113 -147 -64 -67 -21 -44 -61 hvcurveto
          315 -391 rmoveto
          -83 -3 -48 -46 -61 hhcurveto
          -61 -35 38 59 57 41 30 48 49 37 -19 -36 33 hvcurveto
          endchar
        </CharString>
        <CharString name="percent">
          159 54 callsubr
          64 106 83 106 99 106 83 106 hintmask 1011011111000000
          743 -36 callsubr
          hintmask 1011101111000000
          -10 callsubr
          hintmask 1011011111000000
          -394 500 4 callsubr
          hvcurveto
          hintmask 1011101111000000
          5 callsubr
          hintmask 1011011111000000
          -91 -8 callsubr
          hvcurveto
          hintmask 0111011111000000
          -10 callsubr
          endchar
        </CharString>
        <CharString name="period">
          -372 -8 176 hstem
          56 176 vstem
          56 80 -68 callsubr
        </CharString>
        <CharString name="periodcentered">
          -362 230 176 hstem
          61 176 vstem
          61 318 -68 callsubr
        </CharString>
        <CharString name="perthousand">
          457 54 callsubr
          45 106 83 106 99 106 83 106 54 106 83 106 hintmask 1011011111110000
          724 -36 callsubr
          hintmask 0000101100000000
          -10 callsubr
          hintmask 1011011111110000
          -394 500 4 callsubr
          hvcurveto
          hintmask 0000101100000000
          5 callsubr
          hintmask 1011011111110000
          -91 -8 callsubr
          -10 callsubr
          743 -318 -50 callsubr
          hintmask 0100001000000000
          -10 callsubr
          endchar
        </CharString>
        <CharString name="pi">
          84 21 -21 407 131 hstem
          23 132 64 143 104 150 vstem
          168 322 rmoveto
          0 -13 21 22 vvcurveto
          23 18 19 46 vhcurveto
          -3 -121 -30 -175 -37 -111 rrcurveto
          142 hlineto
          37 97 29 190 5 120 rrcurveto
          104 -407 150 407 96 131 -496 hlineto
          -117 -76 -76 -89 -29 7 -29 14 -28 hvcurveto
          endchar
        </CharString>
        <CharString name="plus">
          -76 289 123 hstem
          223 138 vstem
          223 109 rmoveto
          138 180 175 123 -175 180 -138 -180 -175 -123 175 hlineto
          endchar
        </CharString>
        <CharString name="plusminus">
          -79 89 113 189 117 hstem
          221 138 vstem
          221 652 rmoveto
          -144 -173 -117 173 -139 138 139 174 117 -174 144 vlineto
          -311 -450 rmoveto
          -113 485 113 vlineto
          endchar
        </CharString>
        <CharString name="product">
          128 -191 -21 860 140 hstem
          83 162 298 162 vstem
          705 -212 rmoveto
          1000 -622 -1000 162 860 298 -860 vlineto
          endchar
        </CharString>
        <CharString name="q">
          43 callsubr
          41 151 252 151 hintmask 11011100
          41 269 rmoveto
          -168 126 -109 131 55 48 17 34 43 vhcurveto
          -237 151 vlineto
          hintmask 11101100
          732 -151 vlineto
          hintmask 11011100
          -60 vlineto
          45 -45 -45 24 -65 hhcurveto
          -125 -123 -110 -168 hvcurveto
          282 -149 rmoveto
          -68 -63 58 90 88 58 65 73 66 57 -63 -91 -87 -57 -60 -66 hvcurveto
          endchar
        </CharString>
        <CharString name="question">
          -136 -8 176 333 214 -132 132 hstemhm
          169 176 -166 152 -14 157 hintmask 10101000
          331 208 rmoveto
          60 vlineto
          38 10 12 23 22 vhcurveto
          hintmask 10100100
          60 60 50 39 84 vvcurveto
          124 -91 68 -118 -126 -89 -79 -135 -15 vhcurveto
          hintmask 11001000
          159 hlineto
          48 5 25 34 36 hhcurveto
          hintmask 10100100
          33 24 -29 -38 -19 -6 -16 -9 -11 hvcurveto
          -68 -70 rlineto
          hintmask 10101000
          -42 -43 -13 -16 -58 vvcurveto
          -75 vlineto
          -10 -128 rmoveto
          hintmask 10110000
          -94 callsubr
        </CharString>
        <CharString name="questiondown">
          -134 -8 132 -132 214 333 176 hstemhm
          52 157 -28 176 -162 152 hintmask 10100100
          195 499 rmoveto
          -60 vlineto
          -38 -10 -12 -23 -22 vhcurveto
          hintmask 10110000
          -60 -60 -50 -39 -84 vvcurveto
          -124 91 -68 118 126 89 79 135 15 vhcurveto
          hintmask 01100100
          -159 hlineto
          -48 -5 -25 -34 -36 hhcurveto
          hintmask 10110000
          -33 -24 29 38 19 6 16 9 11 hvcurveto
          68 70 rlineto
          hintmask 10100100
          42 43 13 16 58 vvcurveto
          75 vlineto
          10 128 rmoveto
          hintmask 10101000
          -72 callsubr
          -71 callsubr
          vhcurveto
          endchar
        </CharString>
        <CharString name="quotedbl">
          -227 431 268 hstem
          71 119 53 55 callsubr
          172 -268 57 callsubr
          endchar
        </CharString>
        <CharString name="quotedblbase">
          -235 -96 254 hstemhm
          39 100 callsubr
          hintmask 11000000
          1 callsubr
          hintmask 11100000
          267 hmoveto
          10 callsubr
        </CharString>
        <CharString name="quotedblleft">
          -235 449 254 -107 107 0 -20 hstemhm
          36 100 callsubr
          hintmask 00110000
          76 callsubr
          hintmask 10010000
          39 callsubr
          48 35 34 48 vhcurveto
          hintmask 01010000
          98 callsubr
          vhcurveto
          230 107 rmoveto
          hintmask 00111000
          -82 hlineto
          -73 -106 rlineto
          hintmask 10011000
          39 callsubr
          48 35 34 48 vhcurveto
          hintmask 01011000
          98 callsubr
          vhcurveto
          endchar
        </CharString>
        <CharString name="quotedblright">
          -235 446 254 0 -20 hstemhm
          39 100 callsubr
          hintmask 01100000
          hintmask 10100000
          0 callsubr
          hintmask 10110000
          267 hmoveto
          10 callsubr
        </CharString>
        <CharString name="quoteleft">
          -420 596 107 0 -20 hstemhm
          36 165 hintmask 01100000
          76 callsubr
          39 callsubr
          vhcurveto
          hintmask 10100000
          48 35 34 48 98 callsubr
          hvcurveto
          endchar
        </CharString>
        <CharString name="quoteright">
          -420 700 -20 hstem
          39 165 vstem
          0 callsubr
          endchar
        </CharString>
        <CharString name="quotesinglbase">
          -420 -96 254 hstem
          39 165 vstem
          1 callsubr
          endchar
        </CharString>
        <CharString name="quotesingle">
          -399 431 268 hstem
          71 55 callsubr
          endchar
        </CharString>
        <CharString name="r">
          64 callsubr
          42 callsubr
          hintmask 10110000
          66 callsubr
          hintmask 11010000
          77 callsubr
          hintmask 10110000
          67 callsubr
          endchar
        </CharString>
        <CharString name="radical">
          62 296 127 334 -20 hstem
          24 696 vstem
          24 296 rmoveto
          99 hlineto
          144 -452 rlineto
          160 hlineto
          293 913 rlineto
          -153 hlineto
          -219 -690 -111 356 rlineto
          -213 hlineto
          endchar
        </CharString>
        <CharString name="rcaron">
          64 callsubr
          64 158 42 callsubr
          hintmask 10111000
          66 callsubr
          hintmask 11011000
          77 callsubr
          hintmask 10111000
          67 callsubr
          -376 363 -81 callsubr
        </CharString>
        <CharString name="rcommaaccent">
          -249 -250 195 76 -21 406 133 -133 142 42 callsubr
          hintmask 11011000
          16 63 callsubr
          301 603 rmoveto
          -64 -2 -61 -39 -36 -40 rrcurveto
          hintmask 11101000
          72 -150 -539 150 233 vlineto
          hintmask 11011000
          67 callsubr
          endchar
        </CharString>
        <CharString name="registered">
          164 -12 74 212 90 101 90 81 75 hstem
          51 74 135 110 120 109 100 -26 callsubr
          -76 -30 -71 -50 -52 vhcurveto
          -101 141 rlineto
          46 20 35 38 66 vvcurveto
          96 -49 43 -129 vhcurveto
          -161 -406 110 125 44 hlineto
          87 -125 rlineto
          116 hlineto
          -54 -52 -72 -33 -82 hhcurveto
          26 callsubr
          hvcurveto
          -209 66 rmoveto
          -34 -12 -18 -55 vhcurveto
          -53 101 55 hlineto
          48 17 -12 -37 hvcurveto
          endchar
        </CharString>
        <CharString name="ring">
          -246 596 72 70 72 hstem
          100 72 70 72 vstem
          100 703 -18 callsubr
        </CharString>
        <CharString name="s">
          82 callsubr
          -63 callsubr
          endchar
        </CharString>
        <CharString name="scaron">
          82 callsubr
          64 158 -63 callsubr
          -418 597 -81 callsubr
        </CharString>
        <CharString name="section">
          -38 -132 122 627 122 hstemhm
          50 133 -92 146 159 144 -95 133 hintmask 11100100
          hintmask 11010100
          237 564 rmoveto
          29 25 24 44 46 45 -16 -48 63 vhcurveto
          75 107 rlineto
          55 -75 -63 24 -89 hhcurveto
          -125 -92 -74 -111 -40 17 -37 37 -26 hvcurveto
          hintmask 11101000
          -63 -27 -32 -56 -54 vvcurveto
          -118 95 -43 126 -37 vhcurveto
          90 -26 35 -19 -33 vvcurveto
          -33 -29 -15 -48 -63 -56 35 53 -63 vhcurveto
          -84 -101 rlineto
          -72 79 92 -37 92 hhcurveto
          141 83 82 93 37 -18 47 -46 31 hvcurveto
          hintmask 11100100
          75 31 27 57 55 vvcurveto
          106 -72 43 -152 37 vhcurveto
          hintmask 11010100
          -95 24 -22 16 37 vvcurveto
          hintmask 11100100
          -54 -246 rmoveto
          36 39 18 40 65 118 -19 -62 -37 -40 -23 -50 -100 -72 37 50 vhcurveto
          endchar
        </CharString>
        <CharString name="semicolon">
          -345 -101 268 88 176 hstemhm
          67 176 -176 186 hintmask 11100000
          64 -101 rmoveto
          hintmask 11010000
          98 hlineto
          62 103 rlineto
          15 26 14 24 27 vvcurveto
          51 -43 37 -52 -48 -43 -37 -51 -28 14 -25 22 -16 vhcurveto
          hintmask 11100000
          -36 333 -68 callsubr
        </CharString>
        <CharString name="seven">
          -81 21 -21 565 134 hstem
          47 146 vstem
          47 475 rmoveto
          146 90 176 hlineto
          -270 -565 rlineto
          170 hlineto
          283 581 rlineto
          118 -505 vlineto
          endchar
        </CharString>
        <CharString name="six">
          -30 -8 131 206 132 120 134 hstem
          56 154 224 143 vstem
          557 633 rmoveto
          36 -45 -64 46 -106 hhcurveto
          -149 -137 -103 -264 -188 68 -168 205 139 109 89 147 143 -102 90 -127 -56 -48 -20 -22 -34 hvcurveto
          94 10 43 68 91 hhcurveto
          72 57 -58 0 hvcurveto
          -259 -295 rmoveto
          64 50 37 58 66 36 -49 -57 -58 -44 -42 -63 -58 -45 50 55 vhcurveto
          endchar
        </CharString>
        <CharString name="slash">
          -46 -112 917 hstem
          27 561 vstem
          446 805 rmoveto
          -419 -917 102 callsubr
          420 917 rlineto
          endchar
        </CharString>
        <CharString name="space">
          -396 endchar
        </CharString>
        <CharString name="sterling">
          -32 0 133 140 126 203 137 hstem
          138 157 vstem
          295 508 rmoveto
          71 40 23 40 34 36 -28 -51 22 vhcurveto
          111 90 rlineto
          80 -46 -71 46 -93 hhcurveto
          -125 -105 -61 -176 hvcurveto
          -103 -80 -126 80 -140 -76 -133 511 133 -278 140 156 126 -156 vlineto
          endchar
        </CharString>
        <CharString name="summation">
          50 -195 140 698 140 hstem
          38 631 vstem
          669 -195 rmoveto
          140 -419 vlineto
          256 352 -238 346 rlineto
          382 140 -599 -105 hlineto
          268 -382 -281 -387 rlineto
          -104 vlineto
          endchar
        </CharString>
        <CharString name="t">
          -220 -8 131 307 108 161 -20 hstem
          99 151 vstem
          250 430 rmoveto
          80 callsubr
          161 -151 -161 -63 -108 63 -248 hlineto
          -122 87 -68 96 48 53 20 44 48 vhcurveto
          -56 105 rlineto
          -25 -19 -28 -13 -24 hhcurveto
          -28 -26 22 44 hvcurveto
          endchar
        </CharString>
        <CharString name="thorn">
          40 callsubr
          126 195 29 callsubr
          253 151 vstem
          99 callsubr
          180 -130 98 -130 -51 -51 -16 -38 -42 vhcurveto
          249 -150 -936 150 237 vlineto
          -34 44 48 -17 54 hhcurveto
          132 126 109 168 -38 callsubr
        </CharString>
        <CharString name="three">
          -69 -8 136 438 133 hstem
          385 151 vstem
          294 566 rmoveto
          -134 -158 rlineto
          -115 vlineto
          14 44 30 5 19 hhcurveto
          86 46 -40 -51 -67 -51 -26 -57 -49 -67 27 43 -61 hvcurveto
          -64 -124 rlineto
          -55 80 86 -27 74 hhcurveto
          142 118 83 152 94 -60 88 -116 19 hvcurveto
          143 163 rlineto
          108 -428 -133 vlineto
          endchar
        </CharString>
        <CharString name="threequarters">
          241 92 callsubr
          88 94 247 92 55 -20 hstemhm
          64 272 -89 108 373 91 hintmask 1001110010000000
          607 754 rmoveto
          hintmask 0101110110000000
          62 callsubr
          -536 -147 -33 callsubr
          hintmask 1001111010000000
          94 callsubr
          664 -345 65 callsubr
          hintmask 0011110010000000
          81 callsubr
          hintmask 1001110010000000
          -98 91 vlineto
          hintmask 0011110010000000
          98 46 vlineto
          hintmask 1001110010000000
          80 -46 84 vlineto
          endchar
        </CharString>
        <CharString name="threesuperior">
          -224 266 94 247 92 hstemhm
          76 272 -89 108 hintmask 11010000
          198 607 -33 callsubr
          hintmask 11100000
          94 callsubr
          endchar
        </CharString>
        <CharString name="tilde">
          -75 608 18 callsubr
          107 71 callsubr
          hintmask 01110000
          299 635 rmoveto
          hintmask 10110000
          -85 callsubr
          hintmask 01110000
          -84 callsubr
          -27 callsubr
        </CharString>
        <CharString name="trademark">
          330 596 103 hstem
          179 110 142 110 257 110 vstem
          289 596 rmoveto
          116 103 -342 -103 116 -319 110 hlineto
          346 33 rmoveto
          69 hlineto
          94 191 rlineto
          -224 110 422 -139 vlineto
          -99 -210 -99 210 rlineto
          -140 -422 110 224 hlineto
          endchar
        </CharString>
        <CharString name="two">
          -55 0 140 441 134 hstem
          378 152 vstem
          378 495 rmoveto
          -44 -40 -48 -75 -77 vhcurveto
          -205 -210 rlineto
          -116 493 140 -276 vlineto
          126 131 rlineto
          100 104 29 55 71 vvcurveto
          137 -111 77 -122 -119 -71 -59 -95 -61 vhcurveto
          125 -74 rlineto
          48 30 40 46 55 hhcurveto
          47 35 -34 -52 hvcurveto
          endchar
        </CharString>
        <CharString name="twosuperior">
          -221 283 96 244 92 hstem
          255 108 vstem
          255 580 rmoveto
          -24 -23 -27 -42 -43 vhcurveto
          -22 callsubr
          23 16 -17 -26 hvcurveto
          endchar
        </CharString>
        <CharString name="u">
          -78 callsubr
          endchar
        </CharString>
        <CharString name="uacute">
          -78 callsubr
          -39 48 callsubr
        </CharString>
        <CharString name="ucircumflex">
          -20 -23 callsubr
          93 158 hstemhm
          65 33 callsubr
          hintmask 10111100
          -75 callsubr
          hintmask 01111100
          20 callsubr
          -182 73 -99 callsubr
        </CharString>
        <CharString name="udieresis">
          -20 -23 callsubr
          99 106 callsubr
          84 callsubr
          -73 22 callsubr
          -66 151 hintmask 10111001
          -75 callsubr
          hintmask 01110101
          20 callsubr
          -275 153 rmoveto
          -106 callsubr
          hintmask 10111010
          193 hmoveto
          -106 callsubr
          endchar
        </CharString>
        <CharString name="ugrave">
          -78 callsubr
          -15 73 -77 callsubr
        </CharString>
        <CharString name="underscore">
          60 -132 87 hstem
          67 586 vstem
          67 -132 rmoveto
          586 87 -586 hlineto
          endchar
        </CharString>
        <CharString name="v">
          -74 104 callsubr
          -20 hstem
          3 580 vstem
          216 hmoveto
          154 hlineto
          213 539 rlineto
          -156 hlineto
          -134 -339 -134 339 rlineto
          -156 hlineto
          endchar
        </CharString>
        <CharString name="w">
          242 0 213 -192 51 callsubr
          hstemhm
          13 876 hintmask 01110000
          351 hmoveto
          100 293 99 -293 rlineto
          156 hlineto
          183 538 rlineto
          -156 hlineto
          hintmask 10110000
          -105 -325 -105 325 rlineto
          -145 hlineto
          -105 -325 -105 325 rlineto
          -155 hlineto
          183 -538 rlineto
          endchar
        </CharString>
        <CharString name="x">
          -75 44 callsubr
          hstem
          13 559 vstem
          202 538 rmoveto
          -179 hlineto
          178 -264 -188 -274 rlineto
          173 hlineto
          102 148 105 -148 rlineto
          179 hlineto
          -192 275 185 263 rlineto
          -176 hlineto
          -95 -144 rlineto
          endchar
        </CharString>
        <CharString name="y">
          -59 callsubr
          endchar
        </CharString>
        <CharString name="yacute">
          -59 callsubr
          14 707 -42 callsubr
          -155 -58 callsubr
          endchar
        </CharString>
        <CharString name="ydieresis">
          59 callsubr
          99 148 hstem
          124 22 callsubr
          -70 callsubr
          -212 787 -107 callsubr
        </CharString>
        <CharString name="yen">
          81 0 224 -96 96 55 96 323 -20 hstemhm
          286 163 hintmask 10111000
          108 224 rmoveto
          hintmask 01111000
          -96 178 vlineto
          hintmask 10111000
          -128 163 vlineto
          hintmask 01111000
          128 176 vlineto
          hintmask 10111000
          96 -176 55 176 96 -110 vlineto
          194 323 61 callsubr
          -171 -285 -165 285 rlineto
          -170 hlineto
          188 -323 rlineto
          -114 -96 178 -55 hlineto
          endchar
        </CharString>
        <CharString name="z">
          91 callsubr
          -6 callsubr
          endchar
        </CharString>
        <CharString name="zcaron">
          91 callsubr
          73 158 -6 callsubr
          12 355 -81 callsubr
        </CharString>
        <CharString name="zero">
          30 -8 128 466 129 hstem
          56 153 272 153 vstem
          209 353 rmoveto
          129 37 104 99 99 37 -104 -129 -129 -37 -104 -99 -99 -37 104 129 vhcurveto
          -153 hmoveto
          -207 87 -154 202 202 87 154 207 208 -87 154 -202 -202 -87 -154 -208 vhcurveto
          endchar
        </CharString>
</ttFont>
